<?xml version="1.0" encoding="utf-8"?>
<!-- Generator: Adobe Illustrator 16.0.3, SVG Export Plug-In . SVG Version: 6.00 Build 0)  -->
<!DOCTYPE svg PUBLIC "-//W3C//DTD SVG 1.1//EN" "http://www.w3.org/Graphics/SVG/1.1/DTD/svg11.dtd">
<svg version="1.1" id="Layer_1" xmlns="http://www.w3.org/2000/svg" xmlns:xlink="http://www.w3.org/1999/xlink" x="0px" y="0px"
	 width="2000px" height="2000px" viewBox="0 0 2000 2000" enable-background="new 0 0 2000 2000" xml:space="preserve">
<rect fill="none" width="2000" height="2000"/>
<g>
	<g>
		<g>
			<path fill="#FFA000" d="M668.416,160.664l37.515,86.099c0.071,0.159,0.124,0.301,0.177,0.411l0.231,0.554l231.535,531.608
				c3.848,8.875,15.097,10.063,21.042,3.854c1.129-1.154,2.085-2.594,2.74-4.276l212.188-539.624l34.746-88.395
				c3.91-9.941,4.219-20.366,1.564-29.866c-4.084-14.786-15.291-27.354-31.102-32.383c-162.922-51.991-332.167-45.556-483.537,8.81
				C669.912,106.66,657.548,135.721,668.416,160.664z"/>
			<path fill="#282826" d="M929.113,783.152L697.521,251.407l-0.183-0.439c-0.046-0.111-0.102-0.236-0.167-0.388l-37.513-86.101
				c-6.262-14.365-6.289-30.857-0.081-45.246c6.261-14.51,17.875-25.436,32.709-30.77c77.525-27.844,158.423-42.933,240.443-44.848
				c84.486-1.973,168.337,10.115,249.216,35.924c18.301,5.821,32.289,20.38,37.414,38.921c3.33,11.931,2.68,24.354-1.877,35.93
				l-34.748,88.396L970.558,782.381c-1.103,2.827-2.719,5.344-4.741,7.416c-5.166,5.396-12.71,7.816-20.183,6.479
				c-5.531-0.99-10.272-3.878-13.592-8.158C930.885,786.625,929.899,784.962,929.113,783.152z M1176.145,97.75
				c-156.982-50.1-322.065-47.091-477.397,8.698c-9.801,3.524-17.481,10.753-21.626,20.357c-4.182,9.694-4.165,20.365,0.053,30.042
				l37.464,85.987l0.46,1.08l231.54,531.621c0.174,0.405,0.709,1.637,2.364,1.933c0.894,0.159,2.155,0.012,3.076-0.95
				c0.282-0.291,0.512-0.652,0.686-1.102l212.185-539.621l34.75-88.398c3.023-7.679,3.459-15.909,1.248-23.821
				c-1.34-4.846-3.586-9.277-6.557-13.108C1189.809,104.561,1183.504,100.089,1176.145,97.75z"/>
		</g>
		<g>
			<path fill="#FFCE6C" d="M706.339,247.728l-0.014,0.017l231.548,531.592l2.498,5.742c3.067,7.069,12.022,8.029,16.799,3.122
				c0.896-0.938,1.652-2.094,2.193-3.451l2.292-5.836l212.188-539.624c-117.236-46.105-240.126-53.458-354.56-28.225l-0.048,0.017
				c-35.172,7.773-69.53,18.584-102.69,32.325C713.142,244.816,709.74,246.254,706.339,247.728z"/>
			<path fill="#282826" d="M931.611,788.893L695.045,245.779l5.691-6.037l1.803-0.782c3.451-1.495,6.901-2.954,10.347-4.381
				c33.357-13.822,68.217-24.817,103.616-32.677l0.723-0.168c120.401-26.548,244.925-16.637,360.115,28.664l8.893,3.496
				l-215.684,548.51l-2.308,5.88c-0.978,2.458-2.379,4.651-4.224,6.581c-4.6,4.725-11.274,6.827-17.857,5.622
				c-4.821-0.883-9.068-3.514-12.011-7.309C933.138,791.879,932.283,790.442,931.611,788.893z M822.007,220.248l-0.709,0.163
				c-34.543,7.633-68.557,18.34-101.099,31.824c-0.423,0.175-0.845,0.35-1.268,0.527l227.702,522.761l2.502,5.751
				c0.125,0.285,0.22,0.371,0.468,0.415c0.271,0.05,0.589-0.017,0.659-0.09c0.047-0.048,0.137-0.163,0.207-0.342l210.958-536.503
				C1052.5,203.868,935.383,195.383,822.007,220.248z"/>
		</g>
	</g>
	<path fill="#A8680C" d="M668.416,160.664l37.515,86.099c-3.82-9.711-32.529-90.765,56.583-124.001
		c263.807-98.391,446.077,28.133,446.077,28.133l1.564-29.866c-4.084-14.786-15.291-27.354-31.102-32.383
		c-162.922-51.991-332.167-45.556-483.537,8.81C669.912,106.66,657.548,135.721,668.416,160.664z"/>
	<path fill="#DDA23A" d="M705.931,246.763c0.071,0.159,0.124,0.301,0.177,0.411l0.231,0.554l-0.014,0.017l231.548,531.592
		l2.498,5.742c3.067,7.069,12.022,8.029,16.799,3.122l2.193-3.451c0,0-0.149-0.541-0.448-1.56
		c-3.679-13.015-29.771-104.821-54.981-185.509c-3.491-11.173-7.479-25.865-11.803-42.976c-3.487-13.861-7.182-29.307-10.967-45.792
		c-7.44-32.177-15.279-68.215-22.795-103.832c-3.562-16.932-7.055-33.769-10.414-50.046c-1-4.885-1.983-9.722-2.949-14.511
		c-5.45-26.72-10.404-51.464-14.481-71.995c-6.885-34.757-11.242-57.466-11.242-57.466l-0.048,0.017l-102.69,32.325L705.931,246.763
		z"/>
	<g>
		<path fill="#282826" d="M929.113,783.152L697.521,251.407l-0.183-0.439c-0.046-0.111-0.102-0.236-0.167-0.388l-37.513-86.101
			c-6.259-14.365-6.291-30.858-0.081-45.246c6.261-14.51,17.875-25.436,32.709-30.77c77.525-27.844,158.423-42.933,240.443-44.848
			c84.486-1.973,168.337,10.115,249.216,35.924c20.793,6.614,35.592,22.462,37.699,40.372c2.379,20.198,2.629,22.309-2.162,34.479
			l-34.748,88.396L970.558,782.381c-1.103,2.827-2.719,5.344-4.741,7.416c-5.166,5.396-12.71,7.816-20.183,6.479
			c-5.531-0.99-10.272-3.878-13.592-8.158C930.885,786.625,929.899,784.962,929.113,783.152z M1176.145,97.75
			c-156.982-50.1-322.065-47.091-477.397,8.698c-9.801,3.524-17.481,10.753-21.626,20.357c-4.182,9.694-4.165,20.365,0.053,30.042
			l37.464,85.987l0.46,1.08l231.54,531.621c0.174,0.405,0.709,1.637,2.364,1.933c0.894,0.159,2.155,0.012,3.076-0.95
			c0.282-0.291,0.512-0.652,0.686-1.102l212.185-539.621l34.75-88.398c3.033-7.708,3.033-7.708,0.969-25.25
			c-0.467-3.972-2.217-7.868-4.959-11.402C1191.332,105.1,1184.418,100.381,1176.145,97.75z"/>
		<path fill="#282826" d="M931.611,788.893L695.045,245.779l5.691-6.037l1.803-0.782c3.451-1.495,6.901-2.954,10.347-4.381
			c33.357-13.822,68.217-24.817,103.616-32.677l0.723-0.168c120.401-26.548,244.925-16.637,360.115,28.664l8.893,3.496
			l-215.684,548.51l-2.308,5.88c-0.978,2.458-2.379,4.651-4.224,6.581c-4.6,4.725-11.274,6.827-17.857,5.622
			c-4.821-0.883-9.068-3.514-12.011-7.309C933.138,791.879,932.283,790.442,931.611,788.893z M822.007,220.248l-0.709,0.163
			c-34.543,7.633-68.557,18.34-101.099,31.824c-0.423,0.175-0.845,0.35-1.268,0.527l227.702,522.761l2.502,5.751
			c0.125,0.285,0.22,0.371,0.468,0.415c0.271,0.05,0.589-0.017,0.659-0.09c0.047-0.048,0.137-0.163,0.207-0.342l210.958-536.503
			C1052.5,203.868,935.383,195.383,822.007,220.248z"/>
	</g>
	<g>
		<path fill="#FFCEA1" d="M887.666,557.241c-6.877-18.26-11.599-30.795-16.794-44.591c15.41-5.594,30.832-11.189,48.755-17.693
			c5.351-1.941,5.964-9.275,1.01-12.076c-8.031-4.546-14.857-8.408-21.804-12.338c4.146-27.934,29.461-43.883,58.174-35.809
			c49.828,14.01,73.119,80.68,42.744,122.355c-12.035,16.511-36.88,20.904-60.146,10.598c2.79-12.414,5.594-24.892,8.395-37.366
			c-2.632-1.953-2.916-2.164-5.549-4.117C925.155,535.999,907.858,545.801,887.666,557.241z"/>
		<path fill="#111111" d="M858.52,506.965l51.959-18.856l-22.063-12.482l0.966-6.489c2.374-15.985,10.698-29.335,23.441-37.586
			c13.311-8.619,29.918-10.757,46.771-6.017c26.493,7.449,48.162,28.793,57.964,57.096c9.74,28.116,5.969,58.055-10.09,80.085
			c-14.753,20.246-44.252,25.882-71.734,13.707l-7.172-3.179l7.258-32.305L882.66,571.06L858.52,506.965z M950.761,561.621
			c16.771,4.893,33.05,1.118,41.267-10.159c12.373-16.976,15.167-40.369,7.475-62.577c-7.752-22.391-24.608-39.197-45.081-44.954
			c-11.492-3.232-22.576-1.933-31.211,3.662c-6.409,4.147-11.07,10.458-13.498,18.127l15.628,8.843
			c5.574,3.156,8.71,9.085,8.177,15.473c-0.534,6.39-4.607,11.717-10.632,13.902l-39.664,14.395l9.449,25.091l50.478-28.599
			l15.536,11.524L950.761,561.621z"/>
	</g>
	<g>
		<g>
			<path fill="#E8615B" d="M804.008,302.601c-15.432,39.26,3.875,83.592,43.118,99.009c7.718,3.035,15.623,4.729,23.494,5.185
				c32.069,1.896,63.117-16.763,75.512-48.306c15.415-39.241-3.874-83.557-43.118-99.005c-7.997-3.139-16.176-4.836-24.318-5.201
				C846.917,252.743,816.302,271.371,804.008,302.601z"/>
			<path fill="#282826" d="M796.304,364.861c-9.164-21.04-9.586-44.392-1.189-65.755l0.001-0.005
				c13.5-34.294,47.272-56.142,84.005-54.365c9.34,0.417,18.553,2.386,27.393,5.855c44.063,17.348,65.823,67.317,48.512,111.39
				c-13.639,34.708-47.783,56.55-84.958,54.352c-9.036-0.526-17.932-2.487-26.434-5.833c-14.575-5.726-27.028-15.089-36.383-27.145
				C802.899,377.743,799.215,371.544,796.304,364.861z M899.523,268.378c-6.869-2.697-14.021-4.228-21.288-4.552
				c-28.581-1.383-54.835,15.604-65.336,42.271c-6.531,16.612-6.202,34.772,0.926,51.134c7.123,16.36,20.192,28.961,36.8,35.484
				c6.622,2.605,13.536,4.134,20.56,4.539c28.904,1.71,55.449-15.273,66.055-42.26c8.926-22.725,4.498-47.459-9.487-65.484
				C920.647,280.35,911.067,272.921,899.523,268.378z"/>
		</g>
		<path fill="#CC4848" d="M804.008,302.601c-15.432,39.26,3.875,83.592,43.118,99.009c7.718,3.035,15.623,4.729,23.494,5.185
			c-95.084-87.454,8.075-152.512,8.075-152.512C846.917,252.743,816.302,271.371,804.008,302.601z"/>
		<path fill="#282826" d="M796.304,364.861c-9.164-21.04-9.586-44.392-1.189-65.755l0.001-0.005
			c13.5-34.294,47.272-56.142,84.005-54.365c9.34,0.417,18.553,2.386,27.393,5.855c44.063,17.348,65.823,67.317,48.512,111.39
			c-13.639,34.708-47.783,56.55-84.958,54.352c-9.036-0.526-17.932-2.487-26.434-5.833c-14.575-5.726-27.028-15.089-36.383-27.145
			C802.899,377.743,799.215,371.544,796.304,364.861z M899.523,268.378c-6.869-2.697-14.021-4.228-21.288-4.552
			c-28.581-1.383-54.835,15.604-65.336,42.271c-6.531,16.612-6.202,34.772,0.926,51.134c7.123,16.36,20.192,28.961,36.8,35.484
			c6.622,2.605,13.536,4.134,20.56,4.539c28.904,1.71,55.449-15.273,66.055-42.26c8.926-22.725,4.498-47.459-9.487-65.484
			C920.647,280.35,911.067,272.921,899.523,268.378z"/>
		
			<ellipse transform="matrix(0.9306 0.3659 -0.3659 0.9306 168.8345 -298.1827)" fill="#FFFFFF" cx="871.066" cy="296.318" rx="16.25" ry="9.714"/>
		<circle fill="#FFFFFF" cx="904.377" cy="348.092" r="13.827"/>
		
			<ellipse transform="matrix(0.9306 0.366 -0.366 0.9306 186.4731 -281.6908)" fill="#FFFFFF" cx="836.283" cy="351.035" rx="12.348" ry="13.828"/>
	</g>
	<g>
		<path fill="#7BAD50" d="M1038.988,274.233c0,0,48.547,5.489,51.939,28.79c3.389,23.302,10.092,17.569-3.912,38.216
			s-36.787,20.058-55.906-3.152C1011.99,314.877,989.373,271.462,1038.988,274.233z"/>
		<path fill="#282826" d="M1002.27,279.782c5.611-11.079,18.143-16.155,37.252-15.089l0.541,0.045
			c5.715,0.647,55.986,7.176,60.318,36.909c0.898,6.186,2.039,10.028,2.951,13.115c3.447,11.636,2.268,16.1-8.408,31.839
			c-7.951,11.726-18.973,18.491-31.031,19.053c-13.943,0.65-28.205-6.984-40.158-21.493c-0.746-0.904-1.641-2.02-2.648-3.316
			C1011.502,328.491,992.177,299.712,1002.27,279.782z M1038.176,283.758c-10.219-0.533-17.086,1.159-18.859,4.657
			c-3.574,7.059,4.848,26.215,19.168,43.596c8.031,9.748,16.738,14.917,24.518,14.555c7.559-0.353,12.932-6.008,16.105-10.69
			c1.848-2.721,6.168-9.096,6.822-11.535c0.121-0.463-0.021-1.124-0.922-4.154c-1.027-3.48-2.439-8.244-3.537-15.787
			c-0.229-1.559-0.941-3.053-2.047-4.479C1072.848,291.446,1052.416,285.44,1038.176,283.758z"/>
	</g>
	<path fill="#FFFFFF" d="M1150.127,202.921L1150.127,202.921c6.455,2.126,13.41-1.385,15.535-7.84l0.674-2.046
		c2.125-6.455-1.387-13.409-7.84-15.534l0,0c-6.453-2.126-13.412,1.383-15.537,7.839l-0.674,2.046
		C1140.162,193.841,1143.67,200.797,1150.127,202.921z"/>
	<path fill="#FFFFFF" d="M960.856,170.074c66.707-3.279,116.144,8.521,136.828,14.679c6.117,1.821,12.588-1.342,14.932-7.283
		l0.813-2.061c2.637-6.688-0.969-14.208-7.852-16.287c-22.791-6.888-74.98-19.318-146.067-15.784
		c-6.907,0.343-12.195,6.328-11.68,13.224l0.161,2.155C948.487,165.361,954.203,170.4,960.856,170.074z"/>
</g>
<g>
	<g>
		<g>
			<path fill="#FFA000" d="M1233.24,151.814l-35.31,87.027c-0.063,0.162-0.128,0.299-0.17,0.414l-0.234,0.553L979.442,777.074
				c-3.652,8.956,3.365,17.828,11.962,17.737c1.614,0,3.312-0.325,4.973-1.032l534.115-225.695l87.484-36.979
				c9.84-4.157,17.508-11.227,22.442-19.768c7.713-13.26,8.86-30.06,1.398-44.878c-76.771-152.817-199.728-269.294-344.444-339.477
				C1272.89,115.118,1243.469,126.603,1233.24,151.814z"/>
			<path fill="#282826" d="M970.589,773.481l218.141-537.404l0.186-0.438c0.047-0.111,0.098-0.238,0.16-0.392l35.313-87.026
				c5.89-14.522,17.659-26.075,32.285-31.699c14.751-5.671,30.684-5.01,44.869,1.863c74.118,35.944,141.478,83.22,200.204,140.509
				c60.493,59.012,110.492,127.403,148.604,203.265c8.637,17.152,8.012,37.333-1.656,53.962
				c-6.2,10.723-15.535,18.946-26.996,23.785l-87.486,36.979l-534.087,225.683c-2.793,1.188-5.722,1.794-8.617,1.796
				c-7.47,0.081-14.475-3.618-18.744-9.896c-3.161-4.646-4.413-10.056-3.674-15.421
				C969.346,777.176,969.843,775.309,970.589,773.481z M1633.275,470.747c-73.968-147.248-191.563-263.146-340.069-335.166
				c-9.372-4.541-19.912-4.976-29.675-1.223c-9.854,3.79-17.47,11.266-21.438,21.047l-35.266,86.912l-0.45,1.084L988.291,780.68
				c-0.169,0.408-0.675,1.652,0.271,3.042c0.513,0.75,1.499,1.55,2.831,1.534c0.406-0.001,0.824-0.091,1.267-0.28l534.111-225.694
				l87.49-36.979c7.603-3.208,13.79-8.653,17.9-15.767c2.526-4.346,4.123-9.051,4.784-13.854
				C1637.962,485.278,1636.75,477.644,1633.275,470.747z"/>
		</g>
		<g>
			<path fill="#FFCE6C" d="M1197.526,239.808l-0.021,0.002L979.442,777.074l-2.357,5.801c-2.907,7.137,2.669,14.209,9.516,14.191
				c1.298-0.016,2.653-0.284,4.001-0.846l5.775-2.442l534.115-225.695c-49.028-116.044-129.712-209.029-227.774-273.182
				l-0.045-0.021c-30.153-19.705-61.908-36.705-94.92-50.8C1204.365,242.635,1200.958,241.208,1197.526,239.808z"/>
			<path fill="#282826" d="M968.233,779.282l222.788-548.91l8.295-0.153l1.821,0.743c3.481,1.421,6.938,2.867,10.366,4.332
				c33.209,14.178,65.446,31.407,95.818,51.214l0.626,0.399c103.177,67.499,183.174,163.44,231.346,277.459l3.72,8.801
				l-542.911,229.41l-5.818,2.461c-2.439,1.021-4.989,1.553-7.658,1.584c-6.593,0.017-12.763-3.286-16.505-8.833
				c-2.741-4.065-3.83-8.939-3.176-13.698C967.167,782.461,967.596,780.844,968.233,779.282z M1298.058,303.271l-0.612-0.394
				c-29.612-19.353-61.054-36.18-93.448-50.011c-0.42-0.18-0.841-0.36-1.263-0.538l-214.441,528.34l-2.36,5.81
				c-0.116,0.289-0.11,0.417,0.031,0.625c0.154,0.229,0.423,0.408,0.524,0.408c0.067-0.001,0.212-0.017,0.39-0.091l531.025-224.392
				C1470.954,456.575,1395.117,366.925,1298.058,303.271z"/>
		</g>
	</g>
	<path fill="#A8680C" d="M1233.24,151.814l-35.31,87.027c4.271-9.521,42.132-86.725,128.207-46.27
		c254.815,119.766,291.839,338.534,291.839,338.534l22.442-19.768c7.713-13.26,8.86-30.06,1.398-44.878
		c-76.771-152.817-199.728-269.294-344.444-339.477C1272.89,115.118,1243.469,126.603,1233.24,151.814z"/>
	<path fill="#DDA23A" d="M1197.931,238.841c-0.063,0.162-0.128,0.299-0.17,0.414l-0.234,0.553l-0.021,0.002L979.442,777.074
		l-2.357,5.801c-2.907,7.137,2.669,14.209,9.516,14.191l4.001-0.846c0,0,0.284-0.485,0.803-1.41
		c6.73-11.733,54.107-94.585,94.153-169.033c5.546-10.308,13.259-23.433,22.466-38.49c7.47-12.186,15.926-25.628,25.063-39.861
		c17.798-27.82,38.076-58.627,58.279-88.906c9.613-14.386,19.204-28.658,28.491-42.442c2.792-4.131,5.563-8.216,8.311-12.256
		c15.288-22.582,29.511-43.427,41.336-60.699c20.03-29.228,33.215-48.223,33.215-48.223l-0.045-0.021l-94.92-50.8L1197.931,238.841z
		"/>
	<g>
		<path fill="#282826" d="M970.589,773.481l218.141-537.404l0.186-0.438c0.047-0.111,0.098-0.238,0.16-0.392l35.313-87.026
			c5.892-14.52,17.659-26.076,32.285-31.699c14.751-5.671,30.684-5.01,44.869,1.863c74.118,35.944,141.478,83.22,200.204,140.509
			c60.493,59.012,110.492,127.403,148.604,203.265c9.813,19.488,8.834,41.149-2.495,55.181
			c-12.774,15.826-14.107,17.48-26.157,22.566l-87.486,36.979l-534.087,225.683c-2.793,1.188-5.722,1.794-8.617,1.796
			c-7.47,0.081-14.475-3.618-18.744-9.896c-3.161-4.646-4.413-10.056-3.674-15.421C969.346,777.176,969.843,775.309,970.589,773.481
			z M1633.275,470.747c-73.968-147.248-191.563-263.146-340.069-335.166c-9.372-4.541-19.912-4.976-29.675-1.223
			c-9.854,3.79-17.47,11.266-21.438,21.047l-35.266,86.912l-0.45,1.084L988.291,780.68c-0.169,0.408-0.675,1.652,0.271,3.042
			c0.513,0.75,1.499,1.55,2.831,1.534c0.406-0.001,0.824-0.091,1.267-0.28l534.111-225.694l87.49-36.979
			c7.63-3.222,7.63-3.222,18.727-16.965c2.512-3.111,4.073-7.087,4.682-11.519C1638.643,486.744,1637.181,478.501,1633.275,470.747z
			"/>
		<path fill="#282826" d="M968.233,779.282l222.788-548.91l8.295-0.153l1.821,0.743c3.481,1.421,6.938,2.867,10.366,4.332
			c33.209,14.178,65.446,31.407,95.818,51.214l0.626,0.399c103.177,67.499,183.174,163.44,231.346,277.459l3.72,8.801
			l-542.911,229.41l-5.818,2.461c-2.439,1.021-4.989,1.553-7.658,1.584c-6.593,0.017-12.763-3.286-16.505-8.833
			c-2.741-4.065-3.83-8.939-3.176-13.698C967.167,782.461,967.596,780.844,968.233,779.282z M1298.058,303.271l-0.612-0.394
			c-29.612-19.353-61.054-36.18-93.448-50.011c-0.42-0.18-0.841-0.36-1.263-0.538l-214.441,528.34l-2.36,5.81
			c-0.116,0.289-0.11,0.417,0.031,0.625c0.154,0.229,0.423,0.408,0.524,0.408c0.067-0.001,0.212-0.017,0.39-0.091l531.025-224.392
			C1470.954,456.575,1395.117,366.925,1298.058,303.271z"/>
	</g>
	<g>
		<path fill="#FFCEA1" d="M1103.089,585.87c8.243-17.685,13.9-29.828,20.128-43.188c14.775,7.104,29.56,14.214,46.744,22.478
			c5.129,2.466,10.801-2.224,9.338-7.724c-2.366-8.92-4.38-16.5-6.429-24.214c22.866-16.571,51.97-9.629,66.278,16.541
			c24.831,45.416-6.537,108.687-57.569,116.119c-20.218,2.944-40.732-11.743-49.637-35.582c10.824-6.686,21.704-13.408,32.58-20.13
			c-0.444-3.247-0.493-3.598-0.938-6.846C1144.488,597.813,1125.386,592.303,1103.089,585.87z"/>
		<path fill="#111111" d="M1118.643,529.877l49.814,23.955l-6.506-24.5l5.314-3.847c13.086-9.482,28.449-12.868,43.26-9.529
			c15.47,3.488,28.611,13.863,37.008,29.224c13.203,24.148,13.099,54.563-0.277,81.362c-13.285,26.624-37.324,44.865-64.301,48.792
			c-24.79,3.612-49.447-13.532-59.962-41.692l-2.743-7.349l28.167-17.403l-58.707-16.935L1118.643,529.877z M1144.081,634.035
			c8.23,15.411,22.313,24.405,36.12,22.393c20.787-3.026,39.462-17.388,49.957-38.418c10.585-21.2,10.811-45,0.609-63.661
			c-5.727-10.476-14.406-17.49-24.444-19.75c-7.447-1.682-15.217-0.6-22.397,3.028l4.607,17.354
			c1.643,6.192-0.402,12.581-5.342,16.666c-4.94,4.086-11.597,4.901-17.372,2.121l-38.027-18.285l-11.328,24.301l55.744,16.082
			l2.627,19.164L1144.081,634.035z"/>
	</g>
	<g>
		<g>
			<path fill="#E8615B" d="M1226.604,347.996c-38.854,16.424-57.042,61.227-40.618,100.061c3.227,7.639,7.545,14.475,12.724,20.419
				c21.07,24.249,56.122,33.394,87.337,20.195c38.829-16.424,57.018-61.203,40.616-100.058c-3.35-7.911-7.855-14.945-13.289-21.021
				C1292.251,343.802,1257.524,334.944,1226.604,347.996z"/>
			<path fill="#282826" d="M1176.712,386.029c8.632-21.263,25.026-37.896,46.171-46.833l0.004-0.002
				c33.955-14.333,73.19-5.47,97.607,22.029c6.233,6.968,11.27,14.93,14.971,23.675c18.414,43.627-2.087,94.128-45.698,112.574
				c-34.347,14.523-73.837,5.391-98.263-22.719c-5.943-6.828-10.763-14.557-14.316-22.974c-6.1-14.422-8.116-29.873-6.04-44.99
				C1172.116,399.751,1173.971,392.783,1176.712,386.029z M1317.862,392.339c-2.876-6.797-6.783-12.98-11.634-18.401
				c-18.998-21.396-49.5-28.283-75.906-17.142c-16.442,6.95-29.193,19.885-35.903,36.422c-6.714,16.532-6.581,34.687,0.37,51.12
				c2.769,6.554,6.511,12.565,11.133,17.871c18.991,21.857,49.694,28.955,76.402,17.663c22.485-9.512,37.069-29.974,40.174-52.577
				C1324.076,415.811,1322.688,403.768,1317.862,392.339z"/>
		</g>
		<path fill="#CC4848" d="M1226.604,347.996c-38.854,16.424-57.042,61.227-40.618,100.061c3.227,7.639,7.545,14.475,12.724,20.419
			c-3.98-129.125,114.664-100.883,114.664-100.883C1292.251,343.802,1257.524,334.944,1226.604,347.996z"/>
		<path fill="#282826" d="M1176.712,386.029c8.632-21.263,25.026-37.896,46.171-46.833l0.004-0.002
			c33.955-14.333,73.19-5.47,97.607,22.029c6.233,6.968,11.27,14.93,14.971,23.675c18.414,43.627-2.087,94.128-45.698,112.574
			c-34.347,14.523-73.837,5.391-98.263-22.719c-5.943-6.828-10.763-14.557-14.316-22.974c-6.1-14.422-8.116-29.873-6.04-44.99
			C1172.116,399.751,1173.971,392.783,1176.712,386.029z M1317.862,392.339c-2.876-6.797-6.783-12.98-11.634-18.401
			c-18.998-21.396-49.5-28.283-75.906-17.142c-16.442,6.95-29.193,19.885-35.903,36.422c-6.714,16.532-6.581,34.687,0.37,51.12
			c2.769,6.554,6.511,12.565,11.133,17.871c18.991,21.857,49.694,28.955,76.402,17.663c22.485-9.512,37.069-29.974,40.174-52.577
			C1324.076,415.811,1322.688,403.768,1317.862,392.339z"/>
		
			<ellipse transform="matrix(0.3892 0.9211 -0.9211 0.3892 1141.194 -938.0674)" fill="#FFFFFF" cx="1277.99" cy="391.537" rx="16.25" ry="9.713"/>
		<path fill="#FFFFFF" d="M1269.657,464.291c-7.032,2.973-15.145-0.321-18.119-7.354c-2.973-7.035,0.32-15.147,7.357-18.118
			c7.032-2.974,15.144,0.319,18.118,7.354C1279.987,453.206,1276.693,461.319,1269.657,464.291z"/>
		
			<ellipse transform="matrix(0.3893 0.9211 -0.9211 0.3893 1114.7866 -871.4478)" fill="#FFFFFF" cx="1214.553" cy="404.938" rx="12.348" ry="13.828"/>
	</g>
	<g>
		<path fill="#7BAD50" d="M1411.207,496.124c0,0,30.026,38.541,15.743,57.261c-14.287,18.717-5.501,19.5-30.052,23.928
			c-24.552,4.428-40.064-12.269-36.844-42.167C1363.274,505.25,1378.491,458.721,1411.207,496.124z"/>
		<path fill="#282826" d="M1381.563,473.758c11.843-3.736,24.235,1.671,36.837,16.076l0.347,0.419
			c3.533,4.537,34.021,45.038,15.799,68.927c-3.794,4.968-5.742,8.47-7.311,11.281c-5.907,10.601-9.923,12.88-28.64,16.255
			c-13.941,2.516-26.485-0.631-35.32-8.858c-10.215-9.512-14.731-25.045-12.72-43.735c0.125-1.166,0.296-2.585,0.519-4.212
			C1353.201,514.421,1360.26,480.482,1381.563,473.758z M1403.831,502.205c-6.765-7.677-12.777-11.402-16.518-10.224
			c-7.545,2.382-15.35,21.798-17.759,44.189c-1.352,12.558,1.043,22.396,6.741,27.704c5.539,5.156,13.339,5.042,18.905,4.036
			c3.236-0.582,10.814-1.952,13.017-3.19c0.415-0.237,0.788-0.801,2.324-3.564c1.77-3.168,4.188-7.509,8.811-13.568
			c0.955-1.254,1.524-2.808,1.771-4.595C1422.581,532.365,1412.587,513.56,1403.831,502.205z"/>
	</g>
	<path fill="#FFFFFF" d="M1539.903,525.698L1539.903,525.698c2.994,6.102,10.367,8.618,16.468,5.622l1.935-0.949
		c6.1-2.995,8.614-10.369,5.621-16.467l0,0c-2.993-6.1-10.368-8.62-16.47-5.625l-1.934,0.95
		C1539.425,512.225,1536.906,519.597,1539.903,525.698z"/>
	<path fill="#FFFFFF" d="M1431.021,367.434c48.993,45.39,75.132,88.98,85.193,108.072c2.977,5.646,9.763,8.059,15.648,5.581
		l2.041-0.86c6.625-2.792,9.479-10.628,6.15-17.002c-11.015-21.107-38.625-67.106-90.863-115.447
		c-5.077-4.698-13.053-4.292-17.621,0.899l-1.428,1.621C1425.741,355.296,1426.137,362.907,1431.021,367.434z"/>
</g>
</svg>
