<?xml version="1.0" encoding="utf-8"?>
<!-- Generator: Adobe Illustrator 16.0.3, SVG Export Plug-In . SVG Version: 6.00 Build 0)  -->
<!DOCTYPE svg PUBLIC "-//W3C//DTD SVG 1.1//EN" "http://www.w3.org/Graphics/SVG/1.1/DTD/svg11.dtd">
<svg version="1.1" id="Layer_1" xmlns="http://www.w3.org/2000/svg" xmlns:xlink="http://www.w3.org/1999/xlink" x="0px" y="0px"
	 width="2000px" height="2000px" viewBox="0 0 2000 2000" enable-background="new 0 0 2000 2000" xml:space="preserve">
<rect fill="none" width="2000" height="2000"/>
<g>
	<g>
		<g>
			<path fill="#FFA000" d="M817.503,159.708l37.515,86.099c0.071,0.159,0.124,0.301,0.177,0.411l0.231,0.554l231.535,531.608
				c3.848,8.875,15.097,10.063,21.042,3.854c1.129-1.154,2.085-2.594,2.74-4.276l212.188-539.624l34.747-88.395
				c3.91-9.941,4.219-20.366,1.564-29.866c-4.085-14.786-15.292-27.354-31.103-32.383c-162.922-51.991-332.167-45.556-483.536,8.81
				C818.999,105.705,806.635,134.766,817.503,159.708z"/>
			<path fill="#282826" d="M1078.2,782.197L846.608,250.452l-0.183-0.439c-0.046-0.111-0.102-0.236-0.167-0.388l-37.513-86.101
				c-6.262-14.365-6.289-30.857-0.081-45.246c6.261-14.51,17.875-25.436,32.709-30.77c77.525-27.844,158.423-42.933,240.443-44.848
				c84.486-1.973,168.337,10.115,249.216,35.924c18.301,5.821,32.289,20.38,37.414,38.921c3.331,11.931,2.68,24.354-1.877,35.93
				l-34.747,88.396l-212.177,539.596c-1.103,2.827-2.719,5.344-4.741,7.416c-5.166,5.396-12.71,7.816-20.183,6.479
				c-5.531-0.99-10.272-3.878-13.592-8.158C1079.973,785.67,1078.986,784.007,1078.2,782.197z M1325.232,96.794
				c-156.983-50.1-322.065-47.091-477.397,8.698c-9.801,3.524-17.481,10.753-21.626,20.357c-4.182,9.694-4.165,20.365,0.053,30.042
				l37.464,85.987l0.46,1.08l231.54,531.621c0.174,0.405,0.709,1.637,2.364,1.933c0.894,0.159,2.155,0.012,3.076-0.95
				c0.282-0.291,0.512-0.652,0.686-1.102l212.186-539.621l34.75-88.398c3.022-7.679,3.458-15.909,1.248-23.821
				c-1.34-4.846-3.586-9.277-6.557-13.108C1338.896,103.606,1332.591,99.134,1325.232,96.794z"/>
		</g>
		<g>
			<path fill="#FFCE6C" d="M855.426,246.772l-0.014,0.017l231.548,531.592l2.498,5.742c3.067,7.069,12.022,8.029,16.799,3.122
				c0.896-0.938,1.652-2.094,2.193-3.451l2.292-5.836l212.188-539.624c-117.236-46.105-240.126-53.458-354.56-28.225l-0.048,0.017
				c-35.172,7.773-69.53,18.584-102.69,32.325C862.229,243.861,858.828,245.299,855.426,246.772z"/>
			<path fill="#282826" d="M1080.698,787.938L844.133,244.824l5.691-6.037l1.803-0.782c3.451-1.495,6.901-2.954,10.347-4.381
				c33.357-13.822,68.217-24.817,103.616-32.677l0.723-0.168c120.401-26.548,244.926-16.637,360.115,28.664l8.892,3.496
				l-215.684,548.51l-2.308,5.88c-0.978,2.458-2.379,4.651-4.224,6.581c-4.6,4.725-11.274,6.827-17.857,5.622
				c-4.821-0.883-9.068-3.514-12.011-7.309C1082.226,790.924,1081.37,789.487,1080.698,787.938z M971.094,219.293l-0.709,0.163
				c-34.543,7.633-68.557,18.34-101.099,31.824c-0.423,0.175-0.845,0.35-1.268,0.527l227.702,522.761l2.502,5.751
				c0.125,0.285,0.22,0.371,0.468,0.415c0.271,0.05,0.589-0.017,0.659-0.09c0.047-0.048,0.137-0.163,0.207-0.342l210.958-536.503
				C1201.588,202.913,1084.471,194.428,971.094,219.293z"/>
		</g>
	</g>
	<path fill="#A8680C" d="M817.503,159.708l37.515,86.099c-3.82-9.711-32.529-90.765,56.583-124.001
		c263.807-98.391,446.077,28.133,446.077,28.133l1.564-29.866c-4.085-14.786-15.292-27.354-31.103-32.383
		c-162.922-51.991-332.167-45.556-483.536,8.81C818.999,105.705,806.635,134.766,817.503,159.708z"/>
	<path fill="#DDA23A" d="M855.018,245.808c0.071,0.159,0.124,0.301,0.177,0.411l0.231,0.554l-0.014,0.017l231.548,531.592
		l2.498,5.742c3.067,7.069,12.022,8.029,16.799,3.122l2.193-3.451c0,0-0.149-0.541-0.448-1.56
		c-3.679-13.015-29.771-104.821-54.981-185.509c-3.491-11.173-7.479-25.865-11.803-42.976c-3.487-13.861-7.182-29.307-10.967-45.792
		c-7.44-32.177-15.279-68.215-22.795-103.832c-3.562-16.932-7.055-33.769-10.414-50.046c-1-4.885-1.983-9.722-2.949-14.511
		c-5.45-26.72-10.404-51.464-14.481-71.995c-6.885-34.757-11.242-57.466-11.242-57.466l-0.048,0.017l-102.69,32.325L855.018,245.808
		z"/>
	<g>
		<path fill="#282826" d="M1078.2,782.197L846.608,250.452l-0.183-0.439c-0.046-0.111-0.102-0.236-0.167-0.388l-37.513-86.101
			c-6.259-14.365-6.291-30.858-0.081-45.246c6.261-14.51,17.875-25.436,32.709-30.77c77.525-27.844,158.423-42.933,240.443-44.848
			c84.486-1.973,168.337,10.115,249.216,35.924c20.794,6.614,35.593,22.462,37.7,40.372c2.379,20.198,2.629,22.309-2.163,34.479
			l-34.747,88.396l-212.177,539.596c-1.103,2.827-2.719,5.344-4.741,7.416c-5.166,5.396-12.71,7.816-20.183,6.479
			c-5.531-0.99-10.272-3.878-13.592-8.158C1079.973,785.67,1078.986,784.007,1078.2,782.197z M1325.232,96.794
			c-156.983-50.1-322.065-47.091-477.397,8.698c-9.801,3.524-17.481,10.753-21.626,20.357c-4.182,9.694-4.165,20.365,0.053,30.042
			l37.464,85.987l0.46,1.08l231.54,531.621c0.174,0.405,0.709,1.637,2.364,1.933c0.894,0.159,2.155,0.012,3.076-0.95
			c0.282-0.291,0.512-0.652,0.686-1.102l212.186-539.621l34.75-88.398c3.033-7.708,3.033-7.708,0.968-25.25
			c-0.466-3.972-2.216-7.868-4.959-11.402C1340.42,104.145,1333.506,99.426,1325.232,96.794z"/>
		<path fill="#282826" d="M1080.698,787.938L844.133,244.824l5.691-6.037l1.803-0.782c3.451-1.495,6.901-2.954,10.347-4.381
			c33.357-13.822,68.217-24.817,103.616-32.677l0.723-0.168c120.401-26.548,244.926-16.637,360.115,28.664l8.892,3.496
			l-215.684,548.51l-2.308,5.88c-0.978,2.458-2.379,4.651-4.224,6.581c-4.6,4.725-11.274,6.827-17.857,5.622
			c-4.821-0.883-9.068-3.514-12.011-7.309C1082.226,790.924,1081.37,789.487,1080.698,787.938z M971.094,219.293l-0.709,0.163
			c-34.543,7.633-68.557,18.34-101.099,31.824c-0.423,0.175-0.845,0.35-1.268,0.527l227.702,522.761l2.502,5.751
			c0.125,0.285,0.22,0.371,0.468,0.415c0.271,0.05,0.589-0.017,0.659-0.09c0.047-0.048,0.137-0.163,0.207-0.342l210.958-536.503
			C1201.588,202.913,1084.471,194.428,971.094,219.293z"/>
	</g>
	<g>
		<path fill="#FFCEA1" d="M1036.753,556.286c-6.877-18.26-11.599-30.795-16.794-44.591c15.41-5.594,30.832-11.189,48.755-17.693
			c5.351-1.941,5.964-9.275,1.01-12.076c-8.031-4.546-14.857-8.408-21.804-12.338c4.146-27.934,29.461-43.883,58.174-35.809
			c49.828,14.01,73.118,80.68,42.744,122.355c-12.035,16.511-36.88,20.904-60.146,10.598c2.79-12.414,5.594-24.892,8.395-37.366
			c-2.632-1.953-2.916-2.164-5.549-4.117C1074.242,535.044,1056.945,544.846,1036.753,556.286z"/>
		<path fill="#111111" d="M1007.607,506.01l51.959-18.856l-22.063-12.482l0.966-6.489c2.374-15.985,10.698-29.335,23.441-37.586
			c13.311-8.619,29.918-10.757,46.771-6.017c26.493,7.449,48.161,28.793,57.965,57.096c9.74,28.116,5.968,58.055-10.09,80.085
			c-14.754,20.246-44.253,25.882-71.734,13.707l-7.172-3.179l7.258-32.305l-53.161,30.121L1007.607,506.01z M1099.849,560.666
			c16.771,4.893,33.05,1.118,41.267-10.159c12.372-16.976,15.167-40.369,7.475-62.577c-7.752-22.391-24.608-39.197-45.081-44.954
			c-11.492-3.232-22.576-1.933-31.211,3.662c-6.409,4.147-11.07,10.458-13.498,18.127l15.628,8.843
			c5.574,3.156,8.71,9.085,8.177,15.473c-0.534,6.39-4.607,11.717-10.632,13.902l-39.664,14.395l9.449,25.091l50.478-28.599
			l15.536,11.524L1099.849,560.666z"/>
	</g>
	<g>
		<g>
			<path fill="#E8615B" d="M953.096,301.646c-15.432,39.26,3.875,83.592,43.118,99.009c7.718,3.035,15.623,4.729,23.494,5.185
				c32.069,1.896,63.117-16.763,75.512-48.306c15.415-39.241-3.874-83.557-43.118-99.005c-7.997-3.139-16.176-4.836-24.318-5.201
				C996.005,251.788,965.389,270.416,953.096,301.646z"/>
			<path fill="#282826" d="M945.391,363.906c-9.164-21.04-9.586-44.392-1.189-65.755l0.001-0.005
				c13.5-34.294,47.272-56.142,84.005-54.365c9.34,0.417,18.553,2.386,27.393,5.855c44.063,17.348,65.823,67.317,48.512,111.39
				c-13.639,34.708-47.783,56.55-84.958,54.352c-9.036-0.526-17.932-2.487-26.434-5.833c-14.575-5.726-27.028-15.089-36.383-27.145
				C951.986,376.788,948.303,370.589,945.391,363.906z M1048.61,267.423c-6.869-2.697-14.021-4.228-21.288-4.552
				c-28.581-1.383-54.835,15.604-65.336,42.271c-6.531,16.612-6.202,34.772,0.926,51.134c7.123,16.36,20.192,28.961,36.8,35.484
				c6.622,2.605,13.536,4.134,20.56,4.539c28.904,1.71,55.449-15.273,66.055-42.26c8.926-22.725,4.498-47.459-9.487-65.484
				C1069.734,279.395,1060.154,271.966,1048.61,267.423z"/>
		</g>
		<path fill="#CC4848" d="M953.096,301.646c-15.432,39.26,3.875,83.592,43.118,99.009c7.718,3.035,15.623,4.729,23.494,5.185
			c-95.084-87.454,8.075-152.512,8.075-152.512C996.005,251.788,965.389,270.416,953.096,301.646z"/>
		<path fill="#282826" d="M945.391,363.906c-9.164-21.04-9.586-44.392-1.189-65.755l0.001-0.005
			c13.5-34.294,47.272-56.142,84.005-54.365c9.34,0.417,18.553,2.386,27.393,5.855c44.063,17.348,65.823,67.317,48.512,111.39
			c-13.639,34.708-47.783,56.55-84.958,54.352c-9.036-0.526-17.932-2.487-26.434-5.833c-14.575-5.726-27.028-15.089-36.383-27.145
			C951.986,376.788,948.303,370.589,945.391,363.906z M1048.61,267.423c-6.869-2.697-14.021-4.228-21.288-4.552
			c-28.581-1.383-54.835,15.604-65.336,42.271c-6.531,16.612-6.202,34.772,0.926,51.134c7.123,16.36,20.192,28.961,36.8,35.484
			c6.622,2.605,13.536,4.134,20.56,4.539c28.904,1.71,55.449-15.273,66.055-42.26c8.926-22.725,4.498-47.459-9.487-65.484
			C1069.734,279.395,1060.154,271.966,1048.61,267.423z"/>
		
			<ellipse transform="matrix(0.9306 0.3659 -0.3659 0.9306 178.8242 -352.8017)" fill="#FFFFFF" cx="1020.153" cy="295.363" rx="16.25" ry="9.714"/>
		<circle fill="#FFFFFF" cx="1053.464" cy="347.137" r="13.827"/>
		
			<ellipse transform="matrix(0.9306 0.366 -0.366 0.9306 196.4653 -336.3162)" fill="#FFFFFF" cx="985.37" cy="350.08" rx="12.348" ry="13.828"/>
	</g>
	<g>
		<path fill="#7BAD50" d="M1188.076,273.278c0,0,48.547,5.489,51.938,28.79c3.389,23.302,10.092,17.569-3.911,38.216
			c-14.005,20.646-36.787,20.058-55.906-3.152C1161.077,313.922,1138.46,270.507,1188.076,273.278z"/>
		<path fill="#282826" d="M1151.357,278.827c5.61-11.079,18.143-16.155,37.251-15.089l0.541,0.045
			c5.716,0.647,55.987,7.176,60.319,36.909c0.898,6.186,2.038,10.028,2.951,13.115c3.447,11.636,2.268,16.1-8.409,31.839
			c-7.951,11.726-18.972,18.491-31.03,19.053c-13.944,0.65-28.205-6.984-40.158-21.493c-0.746-0.904-1.642-2.02-2.648-3.316
			C1160.59,327.536,1141.265,298.757,1151.357,278.827z M1187.264,282.803c-10.22-0.533-17.087,1.159-18.859,4.657
			c-3.574,7.059,4.848,26.215,19.167,43.596c8.031,9.748,16.739,14.917,24.519,14.555c7.558-0.353,12.932-6.008,16.104-10.69
			c1.848-2.721,6.168-9.096,6.822-11.535c0.122-0.463-0.021-1.124-0.921-4.154c-1.028-3.48-2.44-8.244-3.538-15.787
			c-0.228-1.559-0.94-3.053-2.047-4.479C1221.936,290.491,1201.504,284.485,1187.264,282.803z"/>
	</g>
	<path fill="#FFFFFF" d="M1299.214,201.966L1299.214,201.966c6.456,2.126,13.411-1.385,15.536-7.84l0.674-2.046
		c2.124-6.455-1.387-13.409-7.84-15.534l0,0c-6.454-2.126-13.412,1.383-15.537,7.839l-0.674,2.046
		C1289.249,192.886,1292.758,199.842,1299.214,201.966z"/>
	<path fill="#FFFFFF" d="M1109.943,169.119c66.706-3.279,116.144,8.521,136.827,14.679c6.118,1.821,12.588-1.342,14.932-7.283
		l0.813-2.061c2.637-6.688-0.968-14.208-7.852-16.287c-22.791-6.888-74.979-19.318-146.066-15.784
		c-6.907,0.343-12.195,6.328-11.68,13.224l0.161,2.155C1097.574,164.406,1103.29,169.445,1109.943,169.119z"/>
</g>
</svg>
