<?xml version="1.0" encoding="utf-8"?>
<!-- Generator: Adobe Illustrator 16.0.3, SVG Export Plug-In . SVG Version: 6.00 Build 0)  -->
<!DOCTYPE svg PUBLIC "-//W3C//DTD SVG 1.1//EN" "http://www.w3.org/Graphics/SVG/1.1/DTD/svg11.dtd">
<svg version="1.1" id="Layer_1" xmlns="http://www.w3.org/2000/svg" xmlns:xlink="http://www.w3.org/1999/xlink" x="0px" y="0px"
	 width="2000px" height="2000px" viewBox="0 0 2000 2000" enable-background="new 0 0 2000 2000" xml:space="preserve">
<rect fill="none" width="2000" height="2000"/>
<g>
	<g>
		<g>
			<path fill="#FFA000" d="M668.416,160.664l37.515,86.099c0.071,0.159,0.124,0.301,0.177,0.411l0.231,0.554l231.535,531.608
				c3.848,8.875,15.097,10.063,21.042,3.854c1.129-1.154,2.085-2.594,2.74-4.276l212.188-539.624l34.746-88.395
				c3.91-9.941,4.219-20.366,1.564-29.866c-4.084-14.786-15.291-27.354-31.102-32.383c-162.922-51.991-332.167-45.556-483.537,8.81
				C669.912,106.66,657.548,135.721,668.416,160.664z"/>
			<path fill="#282826" d="M929.113,783.152L697.521,251.407l-0.183-0.439c-0.046-0.111-0.102-0.236-0.167-0.388l-37.513-86.101
				c-6.262-14.365-6.289-30.857-0.081-45.246c6.261-14.51,17.875-25.436,32.709-30.77c77.525-27.844,158.423-42.933,240.443-44.848
				c84.486-1.973,168.337,10.115,249.216,35.924c18.301,5.821,32.289,20.38,37.414,38.921c3.33,11.931,2.68,24.354-1.877,35.93
				l-34.748,88.396L970.558,782.381c-1.103,2.827-2.719,5.344-4.741,7.416c-5.166,5.396-12.71,7.816-20.183,6.479
				c-5.531-0.99-10.272-3.878-13.592-8.158C930.885,786.625,929.899,784.962,929.113,783.152z M1176.145,97.75
				c-156.982-50.1-322.065-47.091-477.397,8.698c-9.801,3.524-17.481,10.753-21.626,20.357c-4.182,9.694-4.165,20.365,0.053,30.042
				l37.464,85.987l0.46,1.08l231.54,531.621c0.174,0.405,0.709,1.637,2.364,1.933c0.894,0.159,2.155,0.012,3.076-0.95
				c0.282-0.291,0.512-0.652,0.686-1.102l212.185-539.621l34.75-88.398c3.023-7.679,3.459-15.909,1.248-23.821
				c-1.34-4.846-3.586-9.277-6.557-13.108C1189.809,104.561,1183.504,100.089,1176.145,97.75z"/>
		</g>
		<g>
			<path fill="#FFCE6C" d="M706.339,247.728l-0.014,0.017l231.548,531.592l2.498,5.742c3.067,7.069,12.022,8.029,16.799,3.122
				c0.896-0.938,1.652-2.094,2.193-3.451l2.292-5.836l212.188-539.624c-117.236-46.105-240.126-53.458-354.56-28.225l-0.048,0.017
				c-35.172,7.773-69.53,18.584-102.69,32.325C713.142,244.816,709.74,246.254,706.339,247.728z"/>
			<path fill="#282826" d="M931.611,788.893L695.045,245.779l5.691-6.037l1.803-0.782c3.451-1.495,6.901-2.954,10.347-4.381
				c33.357-13.822,68.217-24.817,103.616-32.677l0.723-0.168c120.401-26.548,244.925-16.637,360.115,28.664l8.893,3.496
				l-215.684,548.51l-2.308,5.88c-0.978,2.458-2.379,4.651-4.224,6.581c-4.6,4.725-11.274,6.827-17.857,5.622
				c-4.821-0.883-9.068-3.514-12.011-7.309C933.138,791.879,932.283,790.442,931.611,788.893z M822.007,220.248l-0.709,0.163
				c-34.543,7.633-68.557,18.34-101.099,31.824c-0.423,0.175-0.845,0.35-1.268,0.527l227.702,522.761l2.502,5.751
				c0.125,0.285,0.22,0.371,0.468,0.415c0.271,0.05,0.589-0.017,0.659-0.09c0.047-0.048,0.137-0.163,0.207-0.342l210.958-536.503
				C1052.5,203.868,935.383,195.383,822.007,220.248z"/>
		</g>
	</g>
	<path fill="#A8680C" d="M668.416,160.664l37.515,86.099c-3.82-9.711-32.529-90.765,56.583-124.001
		c263.807-98.391,446.077,28.133,446.077,28.133l1.564-29.866c-4.084-14.786-15.291-27.354-31.102-32.383
		c-162.922-51.991-332.167-45.556-483.537,8.81C669.912,106.66,657.548,135.721,668.416,160.664z"/>
	<path fill="#DDA23A" d="M705.931,246.763c0.071,0.159,0.124,0.301,0.177,0.411l0.231,0.554l-0.014,0.017l231.548,531.592
		l2.498,5.742c3.067,7.069,12.022,8.029,16.799,3.122l2.193-3.451c0,0-0.149-0.541-0.448-1.56
		c-3.679-13.015-29.771-104.821-54.981-185.509c-3.491-11.173-7.479-25.865-11.803-42.976c-3.487-13.861-7.182-29.307-10.967-45.792
		c-7.44-32.177-15.279-68.215-22.795-103.832c-3.562-16.932-7.055-33.769-10.414-50.046c-1-4.885-1.983-9.722-2.949-14.511
		c-5.45-26.72-10.404-51.464-14.481-71.995c-6.885-34.757-11.242-57.466-11.242-57.466l-0.048,0.017l-102.69,32.325L705.931,246.763
		z"/>
	<g>
		<path fill="#282826" d="M929.113,783.152L697.521,251.407l-0.183-0.439c-0.046-0.111-0.102-0.236-0.167-0.388l-37.513-86.101
			c-6.259-14.365-6.291-30.858-0.081-45.246c6.261-14.51,17.875-25.436,32.709-30.77c77.525-27.844,158.423-42.933,240.443-44.848
			c84.486-1.973,168.337,10.115,249.216,35.924c20.793,6.614,35.592,22.462,37.699,40.372c2.379,20.198,2.629,22.309-2.162,34.479
			l-34.748,88.396L970.558,782.381c-1.103,2.827-2.719,5.344-4.741,7.416c-5.166,5.396-12.71,7.816-20.183,6.479
			c-5.531-0.99-10.272-3.878-13.592-8.158C930.885,786.625,929.899,784.962,929.113,783.152z M1176.145,97.75
			c-156.982-50.1-322.065-47.091-477.397,8.698c-9.801,3.524-17.481,10.753-21.626,20.357c-4.182,9.694-4.165,20.365,0.053,30.042
			l37.464,85.987l0.46,1.08l231.54,531.621c0.174,0.405,0.709,1.637,2.364,1.933c0.894,0.159,2.155,0.012,3.076-0.95
			c0.282-0.291,0.512-0.652,0.686-1.102l212.185-539.621l34.75-88.398c3.033-7.708,3.033-7.708,0.969-25.25
			c-0.467-3.972-2.217-7.868-4.959-11.402C1191.332,105.1,1184.418,100.381,1176.145,97.75z"/>
		<path fill="#282826" d="M931.611,788.893L695.045,245.779l5.691-6.037l1.803-0.782c3.451-1.495,6.901-2.954,10.347-4.381
			c33.357-13.822,68.217-24.817,103.616-32.677l0.723-0.168c120.401-26.548,244.925-16.637,360.115,28.664l8.893,3.496
			l-215.684,548.51l-2.308,5.88c-0.978,2.458-2.379,4.651-4.224,6.581c-4.6,4.725-11.274,6.827-17.857,5.622
			c-4.821-0.883-9.068-3.514-12.011-7.309C933.138,791.879,932.283,790.442,931.611,788.893z M822.007,220.248l-0.709,0.163
			c-34.543,7.633-68.557,18.34-101.099,31.824c-0.423,0.175-0.845,0.35-1.268,0.527l227.702,522.761l2.502,5.751
			c0.125,0.285,0.22,0.371,0.468,0.415c0.271,0.05,0.589-0.017,0.659-0.09c0.047-0.048,0.137-0.163,0.207-0.342l210.958-536.503
			C1052.5,203.868,935.383,195.383,822.007,220.248z"/>
	</g>
	<g>
		<path fill="#FFCEA1" d="M887.666,557.241c-6.877-18.26-11.599-30.795-16.794-44.591c15.41-5.594,30.832-11.189,48.755-17.693
			c5.351-1.941,5.964-9.275,1.01-12.076c-8.031-4.546-14.857-8.408-21.804-12.338c4.146-27.934,29.461-43.883,58.174-35.809
			c49.828,14.01,73.119,80.68,42.744,122.355c-12.035,16.511-36.88,20.904-60.146,10.598c2.79-12.414,5.594-24.892,8.395-37.366
			c-2.632-1.953-2.916-2.164-5.549-4.117C925.155,535.999,907.858,545.801,887.666,557.241z"/>
		<path fill="#111111" d="M858.52,506.965l51.959-18.856l-22.063-12.482l0.966-6.489c2.374-15.985,10.698-29.335,23.441-37.586
			c13.311-8.619,29.918-10.757,46.771-6.017c26.493,7.449,48.162,28.793,57.964,57.096c9.74,28.116,5.969,58.055-10.09,80.085
			c-14.753,20.246-44.252,25.882-71.734,13.707l-7.172-3.179l7.258-32.305L882.66,571.06L858.52,506.965z M950.761,561.621
			c16.771,4.893,33.05,1.118,41.267-10.159c12.373-16.976,15.167-40.369,7.475-62.577c-7.752-22.391-24.608-39.197-45.081-44.954
			c-11.492-3.232-22.576-1.933-31.211,3.662c-6.409,4.147-11.07,10.458-13.498,18.127l15.628,8.843
			c5.574,3.156,8.71,9.085,8.177,15.473c-0.534,6.39-4.607,11.717-10.632,13.902l-39.664,14.395l9.449,25.091l50.478-28.599
			l15.536,11.524L950.761,561.621z"/>
	</g>
	<g>
		<g>
			<path fill="#E8615B" d="M804.008,302.601c-15.432,39.26,3.875,83.592,43.118,99.009c7.718,3.035,15.623,4.729,23.494,5.185
				c32.069,1.896,63.117-16.763,75.512-48.306c15.415-39.241-3.874-83.557-43.118-99.005c-7.997-3.139-16.176-4.836-24.318-5.201
				C846.917,252.743,816.302,271.371,804.008,302.601z"/>
			<path fill="#282826" d="M796.304,364.861c-9.164-21.04-9.586-44.392-1.189-65.755l0.001-0.005
				c13.5-34.294,47.272-56.142,84.005-54.365c9.34,0.417,18.553,2.386,27.393,5.855c44.063,17.348,65.823,67.317,48.512,111.39
				c-13.639,34.708-47.783,56.55-84.958,54.352c-9.036-0.526-17.932-2.487-26.434-5.833c-14.575-5.726-27.028-15.089-36.383-27.145
				C802.899,377.743,799.215,371.544,796.304,364.861z M899.523,268.378c-6.869-2.697-14.021-4.228-21.288-4.552
				c-28.581-1.383-54.835,15.604-65.336,42.271c-6.531,16.612-6.202,34.772,0.926,51.134c7.123,16.36,20.192,28.961,36.8,35.484
				c6.622,2.605,13.536,4.134,20.56,4.539c28.904,1.71,55.449-15.273,66.055-42.26c8.926-22.725,4.498-47.459-9.487-65.484
				C920.647,280.35,911.067,272.921,899.523,268.378z"/>
		</g>
		<path fill="#CC4848" d="M804.008,302.601c-15.432,39.26,3.875,83.592,43.118,99.009c7.718,3.035,15.623,4.729,23.494,5.185
			c-95.084-87.454,8.075-152.512,8.075-152.512C846.917,252.743,816.302,271.371,804.008,302.601z"/>
		<path fill="#282826" d="M796.304,364.861c-9.164-21.04-9.586-44.392-1.189-65.755l0.001-0.005
			c13.5-34.294,47.272-56.142,84.005-54.365c9.34,0.417,18.553,2.386,27.393,5.855c44.063,17.348,65.823,67.317,48.512,111.39
			c-13.639,34.708-47.783,56.55-84.958,54.352c-9.036-0.526-17.932-2.487-26.434-5.833c-14.575-5.726-27.028-15.089-36.383-27.145
			C802.899,377.743,799.215,371.544,796.304,364.861z M899.523,268.378c-6.869-2.697-14.021-4.228-21.288-4.552
			c-28.581-1.383-54.835,15.604-65.336,42.271c-6.531,16.612-6.202,34.772,0.926,51.134c7.123,16.36,20.192,28.961,36.8,35.484
			c6.622,2.605,13.536,4.134,20.56,4.539c28.904,1.71,55.449-15.273,66.055-42.26c8.926-22.725,4.498-47.459-9.487-65.484
			C920.647,280.35,911.067,272.921,899.523,268.378z"/>
		
			<ellipse transform="matrix(0.9306 0.3659 -0.3659 0.9306 168.8345 -298.1827)" fill="#FFFFFF" cx="871.066" cy="296.318" rx="16.25" ry="9.714"/>
		<circle fill="#FFFFFF" cx="904.377" cy="348.092" r="13.827"/>
		
			<ellipse transform="matrix(0.9306 0.366 -0.366 0.9306 186.4731 -281.6908)" fill="#FFFFFF" cx="836.283" cy="351.035" rx="12.348" ry="13.828"/>
	</g>
	<g>
		<path fill="#7BAD50" d="M1038.988,274.233c0,0,48.547,5.489,51.939,28.79c3.389,23.302,10.092,17.569-3.912,38.216
			s-36.787,20.058-55.906-3.152C1011.99,314.877,989.373,271.462,1038.988,274.233z"/>
		<path fill="#282826" d="M1002.27,279.782c5.611-11.079,18.143-16.155,37.252-15.089l0.541,0.045
			c5.715,0.647,55.986,7.176,60.318,36.909c0.898,6.186,2.039,10.028,2.951,13.115c3.447,11.636,2.268,16.1-8.408,31.839
			c-7.951,11.726-18.973,18.491-31.031,19.053c-13.943,0.65-28.205-6.984-40.158-21.493c-0.746-0.904-1.641-2.02-2.648-3.316
			C1011.502,328.491,992.177,299.712,1002.27,279.782z M1038.176,283.758c-10.219-0.533-17.086,1.159-18.859,4.657
			c-3.574,7.059,4.848,26.215,19.168,43.596c8.031,9.748,16.738,14.917,24.518,14.555c7.559-0.353,12.932-6.008,16.105-10.69
			c1.848-2.721,6.168-9.096,6.822-11.535c0.121-0.463-0.021-1.124-0.922-4.154c-1.027-3.48-2.439-8.244-3.537-15.787
			c-0.229-1.559-0.941-3.053-2.047-4.479C1072.848,291.446,1052.416,285.44,1038.176,283.758z"/>
	</g>
	<path fill="#FFFFFF" d="M1150.127,202.921L1150.127,202.921c6.455,2.126,13.41-1.385,15.535-7.84l0.674-2.046
		c2.125-6.455-1.387-13.409-7.84-15.534l0,0c-6.453-2.126-13.412,1.383-15.537,7.839l-0.674,2.046
		C1140.162,193.841,1143.67,200.797,1150.127,202.921z"/>
	<path fill="#FFFFFF" d="M960.856,170.074c66.707-3.279,116.144,8.521,136.828,14.679c6.117,1.821,12.588-1.342,14.932-7.283
		l0.813-2.061c2.637-6.688-0.969-14.208-7.852-16.287c-22.791-6.888-74.98-19.318-146.067-15.784
		c-6.907,0.343-12.195,6.328-11.68,13.224l0.161,2.155C948.487,165.361,954.203,170.4,960.856,170.074z"/>
</g>
<g>
	<g>
		<g>
			<path fill="#FFA000" d="M1222.036,165.764l-35.31,87.027c-0.063,0.162-0.128,0.299-0.17,0.414l-0.234,0.553L968.238,791.024
				c-3.652,8.956,3.365,17.828,11.962,17.737c1.614,0,3.312-0.325,4.973-1.032l534.115-225.695l87.484-36.979
				c9.84-4.157,17.508-11.227,22.442-19.768c7.713-13.26,8.86-30.06,1.398-44.878c-76.771-152.817-199.728-269.294-344.444-339.477
				C1261.686,129.068,1232.265,140.553,1222.036,165.764z"/>
			<path fill="#282826" d="M959.385,787.431l218.141-537.404l0.186-0.438c0.047-0.111,0.098-0.238,0.16-0.392l35.313-87.026
				c5.89-14.522,17.659-26.075,32.285-31.699c14.751-5.671,30.684-5.01,44.869,1.863c74.118,35.944,141.478,83.22,200.204,140.509
				c60.493,59.012,110.492,127.403,148.604,203.265c8.637,17.152,8.012,37.333-1.656,53.962
				c-6.2,10.723-15.535,18.946-26.996,23.785l-87.486,36.979L988.92,816.517c-2.793,1.188-5.722,1.794-8.617,1.796
				c-7.47,0.081-14.475-3.618-18.744-9.896c-3.161-4.646-4.413-10.056-3.674-15.421
				C958.142,791.125,958.639,789.258,959.385,787.431z M1622.071,484.697c-73.968-147.248-191.563-263.146-340.069-335.166
				c-9.372-4.541-19.912-4.976-29.675-1.223c-9.854,3.79-17.47,11.266-21.438,21.047l-35.266,86.912l-0.45,1.084L977.087,794.63
				c-0.169,0.408-0.675,1.652,0.271,3.042c0.513,0.75,1.499,1.55,2.831,1.534c0.406-0.001,0.824-0.091,1.267-0.28l534.111-225.694
				l87.49-36.979c7.603-3.208,13.79-8.653,17.9-15.767c2.526-4.346,4.123-9.051,4.784-13.854
				C1626.758,499.228,1625.546,491.593,1622.071,484.697z"/>
		</g>
		<g>
			<path fill="#FFCE6C" d="M1186.322,253.757l-0.021,0.002L968.238,791.024l-2.357,5.801c-2.907,7.137,2.669,14.209,9.516,14.191
				c1.298-0.016,2.653-0.284,4.001-0.846l5.775-2.442l534.115-225.695c-49.028-116.044-129.712-209.029-227.774-273.182
				l-0.045-0.021c-30.153-19.705-61.908-36.705-94.92-50.8C1193.161,256.584,1189.754,255.158,1186.322,253.757z"/>
			<path fill="#282826" d="M957.029,793.231l222.788-548.91l8.295-0.153l1.821,0.743c3.481,1.421,6.938,2.867,10.366,4.332
				c33.209,14.178,65.446,31.407,95.818,51.214l0.626,0.399c103.177,67.499,183.174,163.44,231.346,277.459l3.72,8.801
				l-542.911,229.41l-5.818,2.461c-2.439,1.021-4.989,1.553-7.658,1.584c-6.593,0.017-12.763-3.286-16.505-8.833
				c-2.741-4.065-3.83-8.939-3.176-13.698C955.962,796.411,956.392,794.794,957.029,793.231z M1286.854,317.221l-0.612-0.394
				c-29.612-19.353-61.054-36.18-93.448-50.011c-0.42-0.18-0.841-0.36-1.263-0.538l-214.441,528.34l-2.36,5.81
				c-0.116,0.289-0.11,0.417,0.031,0.625c0.154,0.229,0.423,0.408,0.524,0.408c0.067-0.001,0.212-0.017,0.39-0.091l531.025-224.392
				C1459.75,470.525,1383.913,380.875,1286.854,317.221z"/>
		</g>
	</g>
	<path fill="#A8680C" d="M1222.036,165.764l-35.31,87.027c4.271-9.521,42.132-86.725,128.207-46.27
		c254.815,119.766,291.839,338.534,291.839,338.534l22.442-19.768c7.713-13.26,8.86-30.06,1.398-44.878
		c-76.771-152.817-199.728-269.294-344.444-339.477C1261.686,129.068,1232.265,140.553,1222.036,165.764z"/>
	<path fill="#DDA23A" d="M1186.727,252.791c-0.063,0.162-0.128,0.299-0.17,0.414l-0.234,0.553l-0.021,0.002L968.238,791.024
		l-2.357,5.801c-2.907,7.137,2.669,14.209,9.516,14.191l4.001-0.846c0,0,0.284-0.485,0.803-1.41
		c6.73-11.733,54.107-94.585,94.153-169.033c5.546-10.308,13.259-23.433,22.466-38.49c7.47-12.186,15.926-25.628,25.063-39.861
		c17.798-27.82,38.076-58.627,58.279-88.906c9.613-14.386,19.204-28.658,28.491-42.442c2.792-4.131,5.563-8.216,8.311-12.256
		c15.288-22.582,29.511-43.427,41.336-60.699c20.03-29.228,33.215-48.223,33.215-48.223l-0.045-0.021l-94.92-50.8L1186.727,252.791z
		"/>
	<g>
		<path fill="#282826" d="M959.385,787.431l218.141-537.404l0.186-0.438c0.047-0.111,0.098-0.238,0.16-0.392l35.313-87.026
			c5.892-14.52,17.659-26.076,32.285-31.699c14.751-5.671,30.684-5.01,44.869,1.863c74.118,35.944,141.478,83.22,200.204,140.509
			c60.493,59.012,110.492,127.403,148.604,203.265c9.813,19.488,8.834,41.149-2.495,55.181
			c-12.774,15.826-14.107,17.48-26.157,22.566l-87.486,36.979L988.92,816.517c-2.793,1.188-5.722,1.794-8.617,1.796
			c-7.47,0.081-14.475-3.618-18.744-9.896c-3.161-4.646-4.413-10.056-3.674-15.421C958.142,791.125,958.639,789.258,959.385,787.431
			z M1622.071,484.697c-73.968-147.248-191.563-263.146-340.069-335.166c-9.372-4.541-19.912-4.976-29.675-1.223
			c-9.854,3.79-17.47,11.266-21.438,21.047l-35.266,86.912l-0.45,1.084L977.087,794.63c-0.169,0.408-0.675,1.652,0.271,3.042
			c0.513,0.75,1.499,1.55,2.831,1.534c0.406-0.001,0.824-0.091,1.267-0.28l534.111-225.694l87.49-36.979
			c7.63-3.222,7.63-3.222,18.727-16.965c2.512-3.111,4.073-7.087,4.682-11.519C1627.438,500.693,1625.977,492.451,1622.071,484.697z
			"/>
		<path fill="#282826" d="M957.029,793.231l222.788-548.91l8.295-0.153l1.821,0.743c3.481,1.421,6.938,2.867,10.366,4.332
			c33.209,14.178,65.446,31.407,95.818,51.214l0.626,0.399c103.177,67.499,183.174,163.44,231.346,277.459l3.72,8.801
			l-542.911,229.41l-5.818,2.461c-2.439,1.021-4.989,1.553-7.658,1.584c-6.593,0.017-12.763-3.286-16.505-8.833
			c-2.741-4.065-3.83-8.939-3.176-13.698C955.962,796.411,956.392,794.794,957.029,793.231z M1286.854,317.221l-0.612-0.394
			c-29.612-19.353-61.054-36.18-93.448-50.011c-0.42-0.18-0.841-0.36-1.263-0.538l-214.441,528.34l-2.36,5.81
			c-0.116,0.289-0.11,0.417,0.031,0.625c0.154,0.229,0.423,0.408,0.524,0.408c0.067-0.001,0.212-0.017,0.39-0.091l531.025-224.392
			C1459.75,470.525,1383.913,380.875,1286.854,317.221z"/>
	</g>
	<g>
		<path fill="#FFCEA1" d="M1091.885,599.82c8.243-17.685,13.9-29.828,20.128-43.188c14.775,7.104,29.56,14.214,46.744,22.478
			c5.129,2.466,10.801-2.224,9.338-7.724c-2.366-8.92-4.38-16.5-6.429-24.214c22.866-16.571,51.97-9.629,66.278,16.541
			c24.831,45.416-6.537,108.687-57.569,116.119c-20.218,2.944-40.732-11.743-49.637-35.582c10.824-6.686,21.704-13.408,32.58-20.13
			c-0.444-3.247-0.493-3.598-0.938-6.846C1133.284,611.762,1114.182,606.253,1091.885,599.82z"/>
		<path fill="#111111" d="M1107.438,543.827l49.814,23.955l-6.506-24.5l5.314-3.847c13.086-9.482,28.449-12.868,43.26-9.529
			c15.47,3.488,28.611,13.863,37.008,29.224c13.203,24.148,13.099,54.563-0.277,81.362c-13.285,26.624-37.324,44.865-64.301,48.792
			c-24.79,3.612-49.447-13.532-59.962-41.692l-2.743-7.349l28.167-17.403l-58.707-16.935L1107.438,543.827z M1132.877,647.984
			c8.23,15.411,22.313,24.405,36.12,22.393c20.787-3.026,39.462-17.388,49.957-38.418c10.585-21.2,10.811-45,0.609-63.661
			c-5.727-10.476-14.406-17.49-24.444-19.75c-7.447-1.682-15.217-0.6-22.397,3.028l4.607,17.354
			c1.643,6.192-0.402,12.581-5.342,16.666c-4.94,4.086-11.597,4.901-17.372,2.121l-38.027-18.285l-11.328,24.301l55.744,16.082
			l2.627,19.164L1132.877,647.984z"/>
	</g>
	<g>
		<g>
			<path fill="#E8615B" d="M1215.399,361.946c-38.854,16.424-57.042,61.227-40.618,100.061c3.227,7.639,7.545,14.475,12.724,20.419
				c21.07,24.249,56.122,33.394,87.337,20.195c38.829-16.424,57.018-61.203,40.616-100.058c-3.35-7.911-7.855-14.945-13.289-21.021
				C1281.047,357.751,1246.32,348.894,1215.399,361.946z"/>
			<path fill="#282826" d="M1165.508,399.979c8.632-21.263,25.026-37.896,46.171-46.833l0.004-0.002
				c33.955-14.333,73.19-5.47,97.607,22.029c6.233,6.968,11.27,14.93,14.971,23.675c18.414,43.627-2.087,94.128-45.698,112.574
				c-34.347,14.523-73.837,5.391-98.263-22.719c-5.943-6.828-10.763-14.557-14.316-22.974c-6.1-14.422-8.116-29.873-6.04-44.99
				C1160.912,413.701,1162.767,406.733,1165.508,399.979z M1306.658,406.289c-2.876-6.797-6.783-12.98-11.634-18.401
				c-18.998-21.396-49.5-28.283-75.906-17.142c-16.442,6.95-29.193,19.885-35.903,36.422c-6.714,16.532-6.581,34.687,0.37,51.12
				c2.769,6.554,6.511,12.565,11.133,17.871c18.991,21.857,49.694,28.955,76.402,17.663c22.485-9.512,37.069-29.974,40.174-52.577
				C1312.872,429.76,1311.483,417.717,1306.658,406.289z"/>
		</g>
		<path fill="#CC4848" d="M1215.399,361.946c-38.854,16.424-57.042,61.227-40.618,100.061c3.227,7.639,7.545,14.475,12.724,20.419
			c-3.98-129.125,114.664-100.883,114.664-100.883C1281.047,357.751,1246.32,348.894,1215.399,361.946z"/>
		<path fill="#282826" d="M1165.508,399.979c8.632-21.263,25.026-37.896,46.171-46.833l0.004-0.002
			c33.955-14.333,73.19-5.47,97.607,22.029c6.233,6.968,11.27,14.93,14.971,23.675c18.414,43.627-2.087,94.128-45.698,112.574
			c-34.347,14.523-73.837,5.391-98.263-22.719c-5.943-6.828-10.763-14.557-14.316-22.974c-6.1-14.422-8.116-29.873-6.04-44.99
			C1160.912,413.701,1162.767,406.733,1165.508,399.979z M1306.658,406.289c-2.876-6.797-6.783-12.98-11.634-18.401
			c-18.998-21.396-49.5-28.283-75.906-17.142c-16.442,6.95-29.193,19.885-35.903,36.422c-6.714,16.532-6.581,34.687,0.37,51.12
			c2.769,6.554,6.511,12.565,11.133,17.871c18.991,21.857,49.694,28.955,76.402,17.663c22.485-9.512,37.069-29.974,40.174-52.577
			C1312.872,429.76,1311.483,417.717,1306.658,406.289z"/>
		
			<ellipse transform="matrix(0.3892 0.9211 -0.9211 0.3892 1147.2006 -919.2271)" fill="#FFFFFF" cx="1266.786" cy="405.486" rx="16.25" ry="9.713"/>
		<path fill="#FFFFFF" d="M1258.453,478.24c-7.032,2.973-15.145-0.321-18.119-7.354c-2.973-7.035,0.32-15.147,7.357-18.118
			c7.032-2.974,15.144,0.319,18.118,7.354C1268.783,467.156,1265.489,475.269,1258.453,478.24z"/>
		
			<ellipse transform="matrix(0.3893 0.9211 -0.9211 0.3893 1120.7933 -852.6075)" fill="#FFFFFF" cx="1203.349" cy="418.887" rx="12.348" ry="13.828"/>
	</g>
	<g>
		<path fill="#7BAD50" d="M1400.003,510.074c0,0,30.026,38.541,15.743,57.261c-14.287,18.717-5.501,19.5-30.052,23.928
			c-24.552,4.428-40.064-12.269-36.844-42.167C1352.07,519.199,1367.287,472.671,1400.003,510.074z"/>
		<path fill="#282826" d="M1370.358,487.708c11.843-3.736,24.235,1.671,36.837,16.076l0.347,0.419
			c3.533,4.537,34.021,45.038,15.799,68.927c-3.794,4.968-5.742,8.47-7.311,11.281c-5.907,10.601-9.923,12.88-28.64,16.255
			c-13.941,2.516-26.485-0.631-35.32-8.858c-10.215-9.512-14.731-25.045-12.72-43.735c0.125-1.166,0.296-2.585,0.519-4.212
			C1341.997,528.371,1349.056,494.432,1370.358,487.708z M1392.627,516.154c-6.765-7.677-12.777-11.402-16.518-10.224
			c-7.545,2.382-15.35,21.798-17.759,44.189c-1.352,12.558,1.043,22.396,6.741,27.704c5.539,5.156,13.339,5.042,18.905,4.036
			c3.236-0.582,10.814-1.952,13.017-3.19c0.415-0.237,0.788-0.801,2.324-3.564c1.77-3.168,4.188-7.509,8.811-13.568
			c0.955-1.254,1.524-2.808,1.771-4.595C1411.377,546.314,1401.383,527.51,1392.627,516.154z"/>
	</g>
	<path fill="#FFFFFF" d="M1528.699,539.647L1528.699,539.647c2.994,6.102,10.367,8.618,16.468,5.622l1.935-0.949
		c6.1-2.995,8.614-10.369,5.621-16.467l0,0c-2.993-6.1-10.368-8.62-16.47-5.625l-1.934,0.95
		C1528.221,526.175,1525.702,533.546,1528.699,539.647z"/>
	<path fill="#FFFFFF" d="M1419.817,381.384c48.993,45.39,75.132,88.98,85.193,108.072c2.977,5.646,9.763,8.059,15.648,5.581
		l2.041-0.86c6.625-2.792,9.479-10.628,6.15-17.002c-11.015-21.107-38.625-67.106-90.863-115.447
		c-5.077-4.698-13.053-4.292-17.621,0.899l-1.428,1.621C1414.537,369.246,1414.933,376.856,1419.817,381.384z"/>
</g>
<g>
	<g>
		<g>
			<path fill="#FFA000" d="M1594.247,547.746l-86.335,36.968c-0.159,0.071-0.302,0.123-0.413,0.175l-0.555,0.228L973.877,813.275
				c-8.897,3.791-10.156,15.033-3.986,21.018c1.147,1.136,2.581,2.101,4.26,2.768l538.268,215.604l88.172,35.308
				c9.916,3.971,20.34,4.346,29.856,1.752c14.811-3.989,27.45-15.116,32.579-30.895c53.023-162.589,47.661-331.872-5.744-483.584
				C1648.24,549.584,1619.257,537.035,1594.247,547.746z"/>
			<path fill="#282826" d="M970.117,804.491l533.203-228.217l0.44-0.181c0.11-0.045,0.236-0.1,0.389-0.165l86.337-36.966
				c14.405-6.171,30.897-6.094,45.245,0.206c14.47,6.354,25.322,18.037,30.563,32.904c27.353,77.7,41.928,158.693,43.322,240.723
				c1.438,84.497-11.181,168.271-37.502,248.983c-5.938,18.264-20.585,32.159-39.157,37.167
				c-11.952,3.255-24.371,2.525-35.918-2.104l-88.174-35.308L970.626,845.94c-2.82-1.122-5.328-2.752-7.386-4.79
				c-5.363-5.2-7.736-12.757-6.35-20.221c1.024-5.526,3.942-10.25,8.244-13.542C966.634,806.24,968.302,805.264,970.117,804.491z
				 M1653.94,1055.862c51.095-156.661,49.132-321.759-5.671-477.442c-3.462-9.822-10.643-17.55-20.219-21.755
				c-9.668-4.244-20.34-4.293-30.042-0.138l-86.225,36.917l-1.082,0.454L977.626,822.063c-0.408,0.171-1.643,0.699-1.949,2.352
				c-0.163,0.894-0.026,2.156,0.932,3.083c0.29,0.285,0.648,0.516,1.097,0.692l538.265,215.601l88.176,35.313
				c7.659,3.071,15.887,3.558,23.813,1.398c4.854-1.311,9.3-3.529,13.149-6.475
				C1647.043,1069.482,1651.554,1063.208,1653.94,1055.862z"/>
		</g>
		<g>
			<path fill="#FFCE6C" d="M1506.944,585.116l-0.018-0.013l-533.05,228.172l-5.757,2.461c-7.089,3.024-8.105,11.973-3.229,16.779
				c0.933,0.902,2.084,1.666,3.438,2.215l5.821,2.331l538.268,215.604c46.848-116.941,54.979-239.782,30.473-354.374l-0.017-0.047
				c-7.551-35.221-18.144-69.647-31.673-102.894C1509.812,591.938,1508.396,588.526,1506.944,585.116z"/>
			<path fill="#282826" d="M964.361,806.953l544.602-233.119l6,5.729l0.771,1.81c1.474,3.459,2.91,6.92,4.315,10.373
				c13.61,33.446,24.386,68.374,32.019,103.821l0.165,0.724c25.784,120.568,15.085,245.026-30.947,359.927l-3.552,8.868
				L970.604,845.931l-5.865-2.347c-2.451-0.991-4.636-2.408-6.556-4.264c-4.694-4.628-6.753-11.318-5.508-17.892
				c0.915-4.816,3.572-9.045,7.385-11.966C961.365,808.46,962.809,807.614,964.361,806.953z M1533.689,700.956l-0.158-0.71
				c-7.414-34.59-17.905-68.672-31.184-101.298c-0.17-0.424-0.343-0.848-0.518-1.271L977.634,822.058l-5.765,2.466
				c-0.287,0.123-0.373,0.218-0.419,0.467c-0.052,0.271,0.013,0.587,0.085,0.659c0.05,0.046,0.163,0.137,0.341,0.209
				l535.155,214.354C1548.608,931.547,1557.836,814.486,1533.689,700.956z"/>
		</g>
	</g>
	<path fill="#A8680C" d="M1594.247,547.746l-86.335,36.968c9.734-3.757,90.969-31.952,123.64,57.368
		c96.716,264.426-30.962,445.89-30.962,445.89l29.856,1.752c14.811-3.989,27.45-15.116,32.579-30.895
		c53.023-162.589,47.661-331.872-5.744-483.584C1648.24,549.584,1619.257,537.035,1594.247,547.746z"/>
	<path fill="#DDA23A" d="M1507.912,584.713c-0.159,0.071-0.302,0.123-0.413,0.175l-0.555,0.228l-0.018-0.013l-533.05,228.172
		l-5.757,2.461c-7.089,3.024-8.105,11.973-3.229,16.779l3.438,2.215c0,0,0.542-0.144,1.562-0.437
		c13.04-3.597,105.008-29.106,185.855-53.806c11.193-3.419,25.91-7.313,43.049-11.529c13.882-3.399,29.351-6.997,45.858-10.677
		c32.225-7.236,68.313-14.847,103.976-22.136c16.954-3.453,33.813-6.841,50.111-10.096c4.891-0.97,9.734-1.921,14.529-2.857
		c26.754-5.281,51.529-10.078,72.086-14.024c34.8-6.664,57.535-10.878,57.535-10.878l-0.017-0.047l-31.673-102.894L1507.912,584.713
		z"/>
	<g>
		<path fill="#282826" d="M970.117,804.491l533.203-228.217l0.44-0.181c0.11-0.045,0.236-0.1,0.389-0.165l86.337-36.966
			c14.404-6.167,30.897-6.094,45.245,0.206c14.47,6.354,25.322,18.037,30.563,32.904c27.353,77.7,41.928,158.693,43.322,240.723
			c1.438,84.497-11.181,168.271-37.502,248.983c-6.745,20.753-22.688,35.449-40.61,37.443c-20.214,2.251-22.325,2.488-34.465-2.38
			l-88.174-35.308L970.626,845.94c-2.82-1.122-5.328-2.752-7.386-4.79c-5.363-5.2-7.736-12.757-6.35-20.221
			c1.024-5.526,3.942-10.25,8.244-13.542C966.634,806.24,968.302,805.264,970.117,804.491z M1653.94,1055.862
			c51.095-156.661,49.132-321.759-5.671-477.442c-3.462-9.822-10.643-17.55-20.219-21.755c-9.668-4.244-20.34-4.293-30.042-0.138
			l-86.225,36.917l-1.082,0.454L977.626,822.063c-0.408,0.171-1.643,0.699-1.949,2.352c-0.163,0.894-0.026,2.156,0.932,3.083
			c0.29,0.285,0.648,0.516,1.097,0.692l538.265,215.601l88.176,35.313c7.688,3.08,7.688,3.08,25.244,1.127
			c3.974-0.441,7.882-2.167,11.433-4.887C1646.493,1071.004,1651.257,1064.119,1653.94,1055.862z"/>
		<path fill="#282826" d="M964.361,806.953l544.602-233.119l6,5.729l0.771,1.81c1.474,3.459,2.91,6.92,4.315,10.373
			c13.61,33.446,24.386,68.374,32.019,103.821l0.165,0.724c25.784,120.568,15.085,245.026-30.947,359.927l-3.552,8.868
			L970.604,845.931l-5.865-2.347c-2.451-0.991-4.636-2.408-6.556-4.264c-4.694-4.628-6.753-11.318-5.508-17.892
			c0.915-4.816,3.572-9.045,7.385-11.966C961.365,808.46,962.809,807.614,964.361,806.953z M1533.689,700.956l-0.158-0.71
			c-7.414-34.59-17.905-68.672-31.184-101.298c-0.17-0.424-0.343-0.848-0.518-1.271L977.634,822.058l-5.765,2.466
			c-0.287,0.123-0.373,0.218-0.419,0.467c-0.052,0.271,0.013,0.587,0.085,0.659c0.05,0.046,0.163,0.137,0.341,0.209l535.155,214.354
			C1548.608,931.547,1557.836,814.486,1533.689,700.956z"/>
	</g>
	<g>
		<path fill="#FFCEA1" d="M1196.287,764.477c18.303-6.76,30.868-11.404,44.696-16.512c5.496,15.445,10.993,30.902,17.385,48.868
			c1.907,5.361,9.237,6.022,12.069,1.085c4.598-8.001,8.502-14.803,12.476-21.725c27.907,4.323,43.694,29.738,35.439,58.399
			c-14.325,49.738-81.142,72.606-122.624,41.968c-16.434-12.139-20.67-37.011-10.217-60.212c12.396,2.869,24.855,5.751,37.313,8.631
			c1.969-2.619,2.182-2.903,4.152-5.523C1217.291,802.099,1207.599,784.74,1196.287,764.477z"/>
		<path fill="#111111" d="M1246.746,735.649l18.526,52.078l12.622-21.982l6.482,1.008c15.97,2.474,29.267,10.882,37.437,23.679
			c8.535,13.366,10.567,29.986,5.722,46.807c-7.618,26.446-29.1,47.979-57.463,57.601c-28.177,9.562-58.093,5.601-80.02-10.597
			c-20.152-14.882-25.602-44.415-13.25-71.82l3.224-7.151l32.259,7.462l-29.785-53.35L1246.746,735.649z M1191.507,827.543
			c-4.999,16.74-1.326,33.041,9.897,41.33c16.897,12.48,40.271,15.422,62.528,7.871c22.44-7.61,39.353-24.358,45.239-44.793
			c3.305-11.473,2.077-22.564-3.464-31.234c-4.106-6.436-10.387-11.136-18.042-13.613l-8.941,15.571
			c-3.191,5.555-9.141,8.654-15.524,8.079c-6.386-0.574-11.688-4.681-13.834-10.72l-14.144-39.754l-25.15,9.29l28.279,50.658
			l-11.622,15.462L1191.507,827.543z"/>
	</g>
	<g>
		<g>
			<path fill="#E8615B" d="M1451.452,682.435c-39.16-15.68-83.614,3.345-99.28,42.49c-3.084,7.697-4.828,15.593-5.333,23.461
				c-2.1,32.056,16.363,63.223,47.827,75.817c39.142,15.663,83.579-3.346,99.276-42.49c3.188-7.978,4.938-16.146,5.354-24.286
				C1501.038,725.66,1482.604,694.926,1451.452,682.435z"/>
			<path fill="#282826" d="M1389.242,674.336c21.098-9.029,44.451-9.306,65.761-0.772l0.005,0.001
				c34.208,13.718,55.842,47.628,53.832,84.349c-0.477,9.337-2.503,18.537-6.029,27.354
				c-17.626,43.952-67.732,65.396-111.695,47.805c-34.621-13.858-56.246-48.14-53.812-85.3c0.583-9.034,2.6-17.916,6-26.396
				c5.818-14.538,15.26-26.933,27.374-36.21C1376.319,680.849,1382.541,677.205,1389.242,674.336z M1485.068,778.166
				c2.741-6.853,4.317-13.995,4.688-21.26c1.563-28.571-15.257-54.932-41.855-65.603c-16.572-6.636-34.734-6.422-51.14,0.603
				c-16.405,7.018-29.089,20.007-35.718,36.574c-2.646,6.604-4.218,13.508-4.669,20.531c-1.894,28.893,14.921,55.545,41.841,66.321
				c22.668,9.07,47.429,4.799,65.544-9.073C1472.963,799.212,1480.452,789.68,1485.068,778.166z"/>
		</g>
		<path fill="#CC4848" d="M1451.452,682.435c-39.16-15.68-83.614,3.345-99.28,42.49c-3.084,7.697-4.828,15.593-5.333,23.461
			c88.056-94.527,152.458,9.041,152.458,9.041C1501.038,725.66,1482.604,694.926,1451.452,682.435z"/>
		<path fill="#282826" d="M1389.242,674.336c21.098-9.029,44.451-9.306,65.761-0.772l0.005,0.001
			c34.208,13.718,55.842,47.628,53.832,84.349c-0.477,9.337-2.503,18.537-6.029,27.354c-17.626,43.952-67.732,65.396-111.695,47.805
			c-34.621-13.858-56.246-48.14-53.812-85.3c0.583-9.034,2.6-17.916,6-26.396c5.818-14.538,15.26-26.933,27.374-36.21
			C1376.319,680.849,1382.541,677.205,1389.242,674.336z M1485.068,778.166c2.741-6.853,4.317-13.995,4.688-21.26
			c1.563-28.571-15.257-54.932-41.855-65.603c-16.572-6.636-34.734-6.422-51.14,0.603c-16.405,7.018-29.089,20.007-35.718,36.574
			c-2.646,6.604-4.218,13.508-4.669,20.531c-1.894,28.893,14.921,55.545,41.841,66.321c22.668,9.07,47.429,4.799,65.544-9.073
			C1472.963,799.212,1480.452,789.68,1485.068,778.166z"/>
		
			<ellipse transform="matrix(-0.3718 0.9283 -0.9283 -0.3718 2694.9321 -324.6388)" fill="#FFFFFF" cx="1457.31" cy="749.532" rx="16.25" ry="9.714"/>
		<path fill="#FFFFFF" d="M1400.184,795.348c-7.088-2.837-10.532-10.887-7.695-17.977c2.84-7.089,10.889-10.535,17.979-7.692
			c7.088,2.837,10.533,10.885,7.693,17.976C1415.323,794.745,1407.273,798.189,1400.184,795.348z"/>
		
			<ellipse transform="matrix(-0.3718 0.9283 -0.9283 -0.3718 2587.5833 -322.2172)" fill="#FFFFFF" cx="1402.814" cy="714.402" rx="12.348" ry="13.827"/>
	</g>
	<g>
		<path fill="#7BAD50" d="M1478.329,917.59c0,0-5.796,48.511-29.118,51.756c-23.322,3.24-17.633,9.98-38.188-4.154
			c-20.558-14.134-19.825-36.914,3.505-55.885C1437.857,890.335,1481.416,867.993,1478.329,917.59z"/>
		<path fill="#282826" d="M1473.014,880.837c11.043,5.681,16.039,18.245,14.853,37.347l-0.049,0.542
			c-0.684,5.71-7.531,55.938-37.29,60.083c-6.192,0.86-10.041,1.976-13.133,2.869c-11.658,3.373-16.114,2.165-31.786-8.61
			c-11.675-8.026-18.371-19.089-18.856-31.153c-0.561-13.947,7.163-28.159,21.747-40.021c0.91-0.74,2.03-1.628,3.334-2.627
			C1424.246,889.76,1453.147,870.619,1473.014,880.837z M1468.811,916.717c0.599-10.215-1.052-17.093-4.537-18.889
			c-7.036-3.618-26.247,4.681-43.717,18.891c-9.8,7.969-15.022,16.644-14.71,24.424c0.306,7.562,5.926,12.971,10.588,16.174
			c2.709,1.865,9.056,6.225,11.492,6.895c0.462,0.124,1.123-0.014,4.158-0.895c3.488-1.005,8.261-2.388,15.81-3.438
			c1.561-0.218,3.059-0.921,4.492-2.018C1460.901,951.339,1467.038,930.946,1468.811,916.717z"/>
	</g>
	<path fill="#FFFFFF" d="M1548.936,1029.18L1548.936,1029.18c-2.167,6.44,1.299,13.418,7.741,15.584l2.043,0.688
		c6.44,2.166,13.417-1.304,15.583-7.742l0,0c2.166-6.439-1.299-13.421-7.741-15.587l-2.042-0.687
		C1558.078,1019.271,1551.101,1022.735,1548.936,1029.18z"/>
	<path fill="#FFFFFF" d="M1582.982,840.119c2.855,66.727-9.257,116.088-15.548,136.732c-1.859,6.106,1.263,12.596,7.188,14.979
		l2.057,0.825c6.67,2.679,14.213-0.878,16.335-7.75c7.032-22.746,19.795-74.855,16.71-145.962c-0.3-6.911-6.251-12.236-13.15-11.764
		l-2.154,0.147C1587.774,827.78,1582.699,833.465,1582.982,840.119z"/>
</g>
<g>
	<g>
		<g>
			<path fill="#FFA000" d="M1600.264,1082.092l-87.057-35.238c-0.162-0.063-0.299-0.127-0.414-0.17l-0.553-0.232L974.795,828.805
				c-8.959-3.645-17.825,3.38-17.727,11.976c0.002,1.614,0.327,3.312,1.035,4.972l226.132,533.931l37.049,87.455
				c4.166,9.836,11.242,17.498,19.787,22.426c13.266,7.703,30.066,8.836,44.879,1.361
				c152.754-76.895,269.131-199.947,339.195-344.721C1636.99,1121.711,1625.482,1092.301,1600.264,1082.092z"/>
			<path fill="#282826" d="M978.381,819.948l537.582,217.702l0.438,0.186c0.111,0.047,0.238,0.098,0.393,0.16l87.055,35.24
				c14.527,5.879,26.09,17.639,31.727,32.26c5.682,14.746,5.033,30.68-1.826,44.871c-35.885,74.146-83.105,141.545-140.346,200.318
				c-58.963,60.541-127.313,110.596-203.145,148.77c-17.145,8.65-37.324,8.043-53.963-1.611
				c-10.729-6.191-18.959-15.521-23.807-26.979l-37.051-87.455L949.32,849.507c-1.191-2.792-1.799-5.72-1.804-8.616
				c-0.087-7.469,3.605-14.478,9.88-18.752c4.644-3.165,10.053-4.421,15.419-3.688C974.686,818.708,976.553,819.205,978.381,819.948
				z M1281.656,1482.389c147.188-74.088,262.99-191.779,334.889-340.344c4.533-9.375,4.959-19.916,1.197-29.676
				c-3.797-9.852-11.279-17.461-21.063-21.42l-86.941-35.195l-1.084-0.449L971.198,837.656c-0.408-0.169-1.653-0.674-3.042,0.273
				c-0.75,0.513-1.549,1.5-1.532,2.832c0.003,0.406,0.092,0.824,0.281,1.267l226.13,533.927l37.051,87.461
				c3.215,7.6,8.664,13.783,15.781,17.887c4.348,2.523,9.053,4.115,13.857,4.773
				C1267.129,1487.086,1274.764,1485.867,1281.656,1482.389z"/>
		</g>
		<g>
			<path fill="#FFCE6C" d="M1512.24,1046.451l-0.002-0.021L974.795,828.805l-5.803-2.353c-7.139-2.901-14.207,2.681-14.184,9.527
				c0.017,1.298,0.285,2.653,0.85,4l2.445,5.773l226.132,533.931c116.004-49.123,208.922-129.883,272.996-227.996l0.021-0.045
				c19.68-30.17,36.654-61.939,50.721-94.963C1509.418,1053.291,1510.842,1049.883,1512.24,1046.451z"/>
			<path fill="#282826" d="M972.58,817.596l549.09,222.341l0.16,8.295l-0.74,1.82c-1.418,3.482-2.861,6.941-4.324,10.371
				c-14.15,33.221-31.354,65.471-51.135,95.859l-0.398,0.627c-67.416,103.23-163.291,183.307-277.271,231.572l-8.797,3.727
				L949.311,849.484l-2.466-5.816c-1.023-2.438-1.557-4.988-1.592-7.657c-0.021-6.593,3.276-12.766,8.819-16.513
				c4.063-2.743,8.937-3.836,13.696-3.187C969.399,816.533,971.016,816.961,972.58,817.596z M1448.857,1147.033l0.395-0.613
				c19.328-29.627,36.129-61.082,49.934-93.488c0.18-0.42,0.359-0.842,0.537-1.264l-528.515-214.01l-5.812-2.355
				c-0.289-0.116-0.417-0.11-0.626,0.031c-0.229,0.155-0.408,0.423-0.408,0.525c0.002,0.067,0.018,0.212,0.092,0.39l224.826,530.843
				C1295.695,1320.055,1385.285,1244.145,1448.857,1147.033z"/>
		</g>
	</g>
	<path fill="#A8680C" d="M1600.264,1082.092l-87.057-35.238c9.525,4.264,86.76,42.061,46.375,128.17
		c-119.559,254.912-338.297,292.115-338.297,292.115l19.787,22.426c13.266,7.703,30.066,8.836,44.879,1.361
		c152.754-76.895,269.131-199.947,339.195-344.721C1636.99,1121.711,1625.482,1092.301,1600.264,1082.092z"/>
	<path fill="#DDA23A" d="M1513.207,1046.854c-0.162-0.063-0.299-0.127-0.414-0.17l-0.553-0.232l-0.002-0.021L974.795,828.805
		l-5.803-2.353c-7.139-2.901-14.207,2.681-14.184,9.527l0.85,4c0,0,0.484,0.284,1.41,0.801
		c11.738,6.721,94.628,54.03,169.109,94.016c10.313,5.538,23.443,13.24,38.508,22.434c12.191,7.46,25.643,15.905,39.883,25.031
		c27.834,17.774,58.658,38.028,88.953,58.206c14.395,9.602,28.674,19.182,42.465,28.457c4.135,2.789,8.221,5.557,12.264,8.301
		c22.594,15.27,43.451,29.475,60.732,41.287c29.244,20.006,48.25,33.176,48.25,33.176l0.021-0.045l50.721-94.963L1513.207,1046.854z
		"/>
	<g>
		<path fill="#282826" d="M978.381,819.948l537.582,217.702l0.438,0.186c0.111,0.047,0.238,0.098,0.393,0.16l87.055,35.24
			c14.525,5.881,26.09,17.639,31.727,32.26c5.682,14.746,5.033,30.68-1.826,44.871c-35.885,74.146-83.105,141.545-140.346,200.318
			c-58.963,60.541-127.313,110.596-203.145,148.77c-19.479,9.83-41.141,8.867-55.182-2.449
			c-15.836-12.762-17.492-14.094-22.588-26.141l-37.051-87.455L949.32,849.507c-1.191-2.792-1.799-5.72-1.804-8.616
			c-0.087-7.469,3.605-14.478,9.88-18.752c4.644-3.165,10.053-4.421,15.419-3.688C974.686,818.708,976.553,819.205,978.381,819.948z
			 M1281.656,1482.389c147.188-74.088,262.99-191.779,334.889-340.344c4.533-9.375,4.959-19.916,1.197-29.676
			c-3.797-9.852-11.279-17.461-21.063-21.42l-86.941-35.195l-1.084-0.449L971.198,837.656c-0.408-0.169-1.653-0.674-3.042,0.273
			c-0.75,0.513-1.549,1.5-1.532,2.832c0.003,0.406,0.092,0.824,0.281,1.267l226.13,533.927l37.051,87.461
			c3.229,7.627,3.229,7.627,16.98,18.713c3.111,2.508,7.09,4.066,11.521,4.672
			C1265.664,1487.768,1273.904,1486.299,1281.656,1482.389z"/>
		<path fill="#282826" d="M972.58,817.596l549.09,222.341l0.16,8.295l-0.74,1.82c-1.418,3.482-2.861,6.941-4.324,10.371
			c-14.15,33.221-31.354,65.471-51.135,95.859l-0.398,0.627c-67.416,103.23-163.291,183.307-277.271,231.572l-8.797,3.727
			L949.311,849.484l-2.466-5.816c-1.023-2.438-1.557-4.988-1.592-7.657c-0.021-6.593,3.276-12.766,8.819-16.513
			c4.063-2.743,8.937-3.836,13.696-3.187C969.399,816.533,971.016,816.961,972.58,817.596z M1448.857,1147.033l0.395-0.613
			c19.328-29.627,36.129-61.082,49.934-93.488c0.18-0.42,0.359-0.842,0.537-1.264l-528.515-214.01l-5.812-2.355
			c-0.289-0.116-0.417-0.11-0.626,0.031c-0.229,0.155-0.408,0.423-0.408,0.525c0.002,0.067,0.018,0.212,0.092,0.39l224.826,530.843
			C1295.695,1320.055,1385.285,1244.145,1448.857,1147.033z"/>
	</g>
	<g>
		<path fill="#FFCEA1" d="M1166.102,952.295c17.689,8.229,29.838,13.876,43.203,20.093c-7.09,14.782-14.189,29.571-22.439,46.763
			c-2.461,5.131,2.232,10.799,7.732,9.332c8.918-2.373,16.496-4.395,24.207-6.449c16.59,22.854,9.672,51.963-16.486,66.293
			c-45.395,24.867-108.691-6.449-116.166-57.475c-2.961-20.217,11.709-40.743,35.541-49.667
			c6.695,10.818,13.426,21.694,20.158,32.563c3.246-0.447,3.596-0.496,6.844-0.943
			C1154.191,993.705,1159.686,974.597,1166.102,952.295z"/>
		<path fill="#111111" d="M1222.105,967.803l-23.914,49.834l24.494-6.525l3.852,5.311c9.494,13.078,12.891,28.439,9.564,43.252
			c-3.475,15.473-13.84,28.623-29.193,37.033c-24.137,13.223-54.553,13.143-81.363-0.211
			c-26.635-13.264-44.895-37.289-48.846-64.262c-3.631-24.787,13.492-49.458,41.645-59.996l7.346-2.749l17.428,28.153l16.887-58.721
			L1222.105,967.803z M1117.969,993.326c-15.402,8.245-24.387,22.334-22.363,36.139c3.045,20.785,17.422,39.447,38.459,49.926
			c21.211,10.568,45.01,10.773,63.662,0.557c10.471-5.734,17.479-14.42,19.729-24.459c1.676-7.449,0.588-15.219-3.045-22.396
			l-17.352,4.623c-6.191,1.646-12.58-0.393-16.67-5.328c-4.09-4.938-4.91-11.594-2.135-17.371l18.254-38.042l-24.311-11.308
			l-16.037,55.757l-19.16,2.643L1117.969,993.326z"/>
	</g>
	<g>
		<g>
			<path fill="#E8615B" d="M1404.076,1075.615c-16.457-38.84-61.273-56.992-100.094-40.535c-7.637,3.232-14.469,7.557-20.41,12.74
				c-24.23,21.09-33.348,56.148-20.123,87.352c16.455,38.816,61.25,56.969,100.09,40.535c7.908-3.355,14.939-7.867,21.01-13.307
				C1408.324,1141.26,1417.152,1106.525,1404.076,1075.615z"/>
			<path fill="#282826" d="M1366.002,1025.756c21.27,8.613,37.916,24.994,46.871,46.133l0.002,0.004
				c14.361,33.943,5.531,73.186-21.949,97.625c-6.963,6.238-14.92,11.281-23.662,14.99c-43.613,18.449-94.131-2.012-112.611-45.607
				c-14.551-34.334-5.451-73.832,22.639-98.281c6.822-5.949,14.547-10.773,22.961-14.334c14.418-6.111,29.867-8.141,44.986-6.078
				C1352.275,1021.17,1359.246,1023.02,1366.002,1025.756z M1359.807,1166.91c6.795-2.881,12.975-6.793,18.393-11.648
				c21.379-19.016,28.242-49.523,17.078-75.92c-6.963-16.438-19.908-29.178-36.451-35.873c-16.537-6.701-34.691-6.553-51.119,0.41
				c-6.551,2.775-12.559,6.521-17.861,11.148c-21.842,19.01-28.914,49.719-17.602,76.416c9.531,22.479,30.004,37.045,52.609,40.131
				C1336.34,1173.145,1348.383,1171.746,1359.807,1166.91z"/>
		</g>
		<path fill="#CC4848" d="M1404.076,1075.615c-16.457-38.84-61.273-56.992-100.094-40.535c-7.637,3.232-14.469,7.557-20.41,12.74
			c129.123-4.086,100.977,114.58,100.977,114.58C1408.324,1141.26,1417.152,1106.525,1404.076,1075.615z"/>
		<path fill="#282826" d="M1366.002,1025.756c21.27,8.613,37.916,24.994,46.871,46.133l0.002,0.004
			c14.361,33.943,5.531,73.186-21.949,97.625c-6.963,6.238-14.92,11.281-23.662,14.99c-43.613,18.449-94.131-2.012-112.611-45.607
			c-14.551-34.334-5.451-73.832,22.639-98.281c6.822-5.949,14.547-10.773,22.961-14.334c14.418-6.111,29.867-8.141,44.986-6.078
			C1352.275,1021.17,1359.246,1023.02,1366.002,1025.756z M1359.807,1166.91c6.795-2.881,12.975-6.793,18.393-11.648
			c21.379-19.016,28.242-49.523,17.078-75.92c-6.963-16.438-19.908-29.178-36.451-35.873c-16.537-6.701-34.691-6.553-51.119,0.41
			c-6.551,2.775-12.559,6.521-17.861,11.148c-21.842,19.01-28.914,49.719-17.602,76.416c9.531,22.479,30.004,37.045,52.609,40.131
			C1336.34,1173.145,1348.383,1171.746,1359.807,1166.91z"/>
		
			<ellipse transform="matrix(-0.9208 0.39 -0.39 -0.9208 3052.9473 1634.2488)" fill="#FFFFFF" cx="1360.576" cy="1127.038" rx="16.249" ry="9.713"/>
		<path fill="#FFFFFF" d="M1287.816,1118.764c-2.979-7.029,0.309-15.145,7.34-18.125c7.031-2.979,15.146,0.309,18.123,7.344
			c2.98,7.029-0.307,15.143-7.338,18.123C1298.908,1129.086,1290.793,1125.799,1287.816,1118.764z"/>
		
			<ellipse transform="matrix(-0.9208 0.3901 -0.3901 -0.9208 3002.4092 1517.5317)" fill="#FFFFFF" cx="1347.124" cy="1063.611" rx="12.348" ry="13.827"/>
	</g>
	<g>
		<path fill="#7BAD50" d="M1256.098,1260.34c0,0-38.516,30.059-57.248,15.791c-18.729-14.273-19.504-5.486-23.951-30.033
			c-4.449-24.549,12.236-40.074,42.135-36.879C1246.934,1212.414,1293.475,1227.594,1256.098,1260.34z"/>
		<path fill="#282826" d="M1278.439,1230.678c3.746,11.84-1.65,24.236-16.045,36.85l-0.42,0.348
			c-4.533,3.537-45.01,34.059-68.912,15.855c-4.973-3.791-8.477-5.736-11.289-7.303c-10.605-5.898-12.887-9.912-16.277-28.627
			c-2.527-13.938,0.607-26.484,8.828-35.326c9.504-10.223,25.033-14.752,43.725-12.756c1.166,0.123,2.586,0.293,4.213,0.516
			C1237.754,1202.35,1271.699,1209.381,1278.439,1230.678z M1250.012,1252.969c7.672-6.771,11.393-12.787,10.211-16.525
			c-2.389-7.543-21.811-15.332-44.203-17.723c-12.559-1.342-22.396,1.061-27.699,6.764c-5.152,5.543-5.031,13.344-4.021,18.908
			c0.584,3.236,1.961,10.813,3.201,13.014c0.238,0.416,0.801,0.789,3.564,2.322c3.172,1.768,7.514,4.182,13.576,8.799
			c1.256,0.955,2.811,1.523,4.598,1.768C1219.867,1271.744,1238.664,1261.734,1250.012,1252.969z"/>
	</g>
	<path fill="#FFFFFF" d="M1226.629,1389.061L1226.629,1389.061c-6.098,3-8.609,10.375-5.607,16.473l0.949,1.934
		c3,6.098,10.377,8.605,16.473,5.607l0,0c6.098-2.998,8.611-10.375,5.611-16.475l-0.951-1.932
		C1240.102,1388.57,1232.729,1386.059,1226.629,1389.061z"/>
	<path fill="#FFFFFF" d="M1384.805,1280.049c-45.352,49.031-88.92,75.205-108.002,85.283c-5.645,2.98-8.053,9.768-5.568,15.652
		l0.861,2.041c2.799,6.621,10.637,9.469,17.008,6.135c21.098-11.031,67.074-38.68,115.373-90.957
		c4.693-5.08,4.281-13.057-0.914-17.619l-1.621-1.428C1396.938,1274.76,1389.328,1275.162,1384.805,1280.049z"/>
</g>
<g>
	<g>
		<g>
			<path fill="#FFA000" d="M1205.772,1467.244l-35.103-87.111c-0.067-0.16-0.117-0.303-0.167-0.416l-0.216-0.559L953.64,841.312
				c-3.601-8.979-14.812-10.479-20.929-4.438c-1.16,1.122-2.155,2.535-2.858,4.197L702.73,1374.582l-37.194,87.391
				c-4.184,9.83-4.783,20.244-2.396,29.813c3.673,14.893,14.525,27.77,30.19,33.236c161.411,56.506,330.77,54.783,483.594,4.65
				C1202.774,1521.184,1215.943,1492.479,1205.772,1467.244z"/>
			<path fill="#282826" d="M962.501,837.74l216.704,537.985l0.17,0.445c0.043,0.109,0.096,0.238,0.157,0.393l35.103,87.111
				c5.86,14.535,5.428,31.02-1.179,45.229c-6.664,14.332-18.577,24.932-33.553,29.85c-78.27,25.674-159.559,38.506-241.599,38.137
				c-84.509-0.379-167.992-14.793-248.12-42.842c-18.131-6.332-31.71-21.273-36.318-39.949c-2.994-12.02-2-24.418,2.878-35.865
				l37.195-87.393l227.112-533.482c1.182-2.796,2.867-5.267,4.946-7.28c5.314-5.25,12.921-7.46,20.354-5.916
				c5.502,1.144,10.163,4.164,13.361,8.534C960.827,834.22,961.767,835.909,962.501,837.74z M696.491,1516.002
				c155.526,54.451,320.627,56.039,477.452,4.592c9.895-3.248,17.775-10.264,22.185-19.746c4.452-9.574,4.731-20.242,0.785-30.031
				l-35.056-86.998l-0.432-1.092L944.771,844.869c-0.162-0.411-0.664-1.657-2.309-1.999c-0.891-0.183-2.155-0.072-3.102,0.865
				c-0.291,0.284-0.53,0.639-0.715,1.082l-227.121,533.505l-37.198,87.396c-3.236,7.594-3.9,15.807-1.91,23.777
				c1.205,4.881,3.326,9.375,6.19,13.287C683.021,1508.813,689.198,1513.459,696.491,1516.002z"/>
		</g>
		<g>
			<path fill="#FFCE6C" d="M1170.287,1379.158l0.014-0.018L953.64,841.312l-2.338-5.81c-2.871-7.152-11.796-8.361-16.705-3.589
				c-0.922,0.914-1.711,2.048-2.289,3.389l-2.456,5.769L702.73,1374.582c115.907,49.35,238.544,60.121,353.636,38.082l0.048-0.016
				c35.374-6.793,70.021-16.643,103.552-29.453C1163.405,1381.879,1166.847,1380.535,1170.287,1379.158z"/>
			<path fill="#282826" d="M960.164,831.932l221.358,549.486l-5.856,5.877l-1.825,0.734c-3.491,1.396-6.98,2.76-10.464,4.09
				c-33.73,12.887-68.882,22.908-104.485,29.779l-0.727,0.148c-121.095,23.189-245.294,9.814-359.178-38.674l-8.791-3.744
				L921.06,837.336l2.473-5.813c1.044-2.43,2.508-4.584,4.405-6.462c4.729-4.595,11.46-6.51,18.006-5.123
				c4.796,1.019,8.966,3.766,11.805,7.641C958.721,828.905,959.536,830.367,960.164,831.932z M1053.899,1403.408l0.715-0.143
				c34.74-6.67,69.041-16.426,101.943-29c0.427-0.162,0.854-0.326,1.281-0.49L944.776,844.877l-2.341-5.816
				c-0.118-0.289-0.211-0.376-0.458-0.428c-0.27-0.058-0.587,0-0.661,0.071c-0.047,0.048-0.14,0.16-0.216,0.336l-225.808,530.425
				C823.04,1413.365,939.875,1425.107,1053.899,1403.408z"/>
		</g>
	</g>
	<path fill="#A8680C" d="M1205.772,1467.244l-35.103-87.111c3.546,9.813,29.989,91.637-60.013,122.379
		c-266.443,91.012-445.122-40.539-445.122-40.539l-2.396,29.813c3.673,14.893,14.525,27.77,30.19,33.236
		c161.411,56.506,330.77,54.783,483.594,4.65C1202.774,1521.184,1215.943,1492.479,1205.772,1467.244z"/>
	<path fill="#DDA23A" d="M1170.67,1380.133c-0.067-0.16-0.117-0.303-0.167-0.416l-0.216-0.559l0.014-0.018L953.64,841.312
		l-2.338-5.81c-2.871-7.152-11.796-8.361-16.705-3.589l-2.289,3.389c0,0,0.132,0.546,0.402,1.572
		c3.317,13.113,26.843,105.609,49.799,186.968c3.178,11.264,6.755,26.063,10.602,43.287c3.099,13.953,6.365,29.494,9.688,46.076
		c6.541,32.373,13.375,68.617,19.897,104.43c3.088,17.023,6.111,33.949,9.017,50.316c0.864,4.91,1.711,9.771,2.543,14.586
		c4.705,26.863,8.968,51.734,12.472,72.369c5.915,34.938,9.639,57.758,9.639,57.758l0.048-0.016l103.552-29.453L1170.67,1380.133z"
		/>
	<g>
		<path fill="#282826" d="M962.501,837.74l216.704,537.985l0.17,0.445c0.043,0.109,0.096,0.238,0.157,0.393l35.103,87.111
			c5.856,14.533,5.428,31.02-1.179,45.229c-6.664,14.332-18.577,24.932-33.553,29.85c-78.27,25.674-159.559,38.506-241.599,38.137
			c-84.509-0.379-167.992-14.793-248.12-42.842c-20.601-7.191-34.954-23.447-36.561-41.408c-1.816-20.256-2.008-22.373,3.121-34.406
			l37.195-87.393l227.112-533.482c1.182-2.796,2.867-5.267,4.946-7.28c5.314-5.25,12.921-7.46,20.354-5.916
			c5.502,1.144,10.163,4.164,13.361,8.534C960.827,834.22,961.767,835.909,962.501,837.74z M696.491,1516.002
			c155.526,54.451,320.627,56.039,477.452,4.592c9.895-3.248,17.775-10.264,22.185-19.746c4.452-9.574,4.731-20.242,0.785-30.031
			l-35.056-86.998l-0.432-1.092L944.771,844.869c-0.162-0.411-0.664-1.657-2.309-1.999c-0.891-0.183-2.155-0.072-3.102,0.865
			c-0.291,0.284-0.53,0.639-0.715,1.082l-227.121,533.505l-37.198,87.396c-3.246,7.623-3.246,7.623-1.672,25.215
			c0.356,3.982,1.998,7.926,4.641,11.535C681.512,1508.23,688.292,1513.141,696.491,1516.002z"/>
		<path fill="#282826" d="M960.164,831.932l221.358,549.486l-5.856,5.877l-1.825,0.734c-3.491,1.396-6.98,2.76-10.464,4.09
			c-33.73,12.887-68.882,22.908-104.485,29.779l-0.727,0.148c-121.095,23.189-245.294,9.814-359.178-38.674l-8.791-3.744
			L921.06,837.336l2.473-5.813c1.044-2.43,2.508-4.584,4.405-6.462c4.729-4.595,11.46-6.51,18.006-5.123
			c4.796,1.019,8.966,3.766,11.805,7.641C958.721,828.905,959.536,830.367,960.164,831.932z M1053.899,1403.408l0.715-0.143
			c34.74-6.67,69.041-16.426,101.943-29c0.427-0.162,0.854-0.326,1.281-0.49L944.776,844.877l-2.341-5.816
			c-0.118-0.289-0.211-0.376-0.458-0.428c-0.27-0.058-0.587,0-0.661,0.071c-0.047,0.048-0.14,0.16-0.216,0.336l-225.808,530.425
			C823.04,1413.365,939.875,1425.107,1053.899,1403.408z"/>
	</g>
	<g>
		<path fill="#FFCEA1" d="M997.645,1064.719c6.366,18.443,10.739,31.105,15.547,45.041c-15.559,5.162-31.131,10.324-49.23,16.328
			c-5.401,1.793-6.218,9.107-1.344,12.045c7.901,4.768,14.617,8.818,21.451,12.939c-4.92,27.809-30.669,43.045-59.147,34.176
			c-49.418-15.391-70.845-82.684-39.322-123.496c12.489-16.17,37.446-19.871,60.418-8.92c-3.135,12.328-6.284,24.723-9.431,37.117
			c2.576,2.023,2.855,2.244,5.432,4.271C959.58,1084.908,977.144,1075.592,997.645,1064.719z"/>
		<path fill="#111111" d="M1025.382,1115.785l-52.465,17.402l21.708,13.092l-1.147,6.459c-2.817,15.914-11.509,29.027-24.478,36.92
			c-13.546,8.244-30.207,9.92-46.919,4.713c-26.276-8.184-47.341-30.123-56.353-58.688c-8.954-28.375-4.351-58.199,12.314-79.773
			c15.313-19.826,44.957-24.641,72.089-11.703l7.08,3.377l-8.154,32.09l53.977-28.631L1025.382,1115.785z M934.696,1058.582
			c-16.629-5.357-33.005-2.035-41.533,9.006c-12.841,16.627-16.284,39.932-9.213,62.346c7.125,22.6,23.506,39.867,43.812,46.193
			c11.399,3.551,22.513,2.561,31.3-2.791c6.524-3.969,11.358-10.148,13.999-17.746l-15.375-9.275
			c-5.484-3.309-8.456-9.324-7.744-15.695c0.712-6.371,4.931-11.582,11.016-13.598l40.049-13.287l-8.748-25.346l-51.255,27.186
			l-15.209-11.951L934.696,1058.582z"/>
	</g>
	<g>
		<g>
			<path fill="#E8615B" d="M1074.185,1321.588c16.518-38.814-1.548-83.668-40.348-100.17c-7.629-3.25-15.485-5.164-23.341-5.838
				c-32.002-2.787-63.559,15-76.828,46.186c-16.5,38.797,1.55,83.635,40.349,100.168c7.906,3.359,16.035,5.285,24.164,5.875
				C1029.902,1370.232,1061.026,1352.465,1074.185,1321.588z"/>
			<path fill="#282826" d="M1083.617,1259.566c8.573,21.287,8.349,44.641-0.641,65.762l-0.002,0.004
				c-14.45,33.906-48.817,54.807-85.485,52.008c-9.324-0.678-18.48-2.902-27.219-6.617c-43.563-18.566-63.925-69.123-45.392-112.697
				c14.598-34.313,49.337-55.195,86.436-51.967c9.02,0.779,17.855,2.986,26.261,6.568c14.41,6.129,26.599,15.836,35.612,28.145
				C1077.385,1246.506,1080.894,1252.805,1083.617,1259.566z M977.752,1353.139c6.792,2.887,13.899,4.615,21.155,5.143
				c28.53,2.178,55.246-14.072,66.486-40.436c6.991-16.426,7.166-34.59,0.497-51.141c-6.664-16.553-19.378-29.512-35.798-36.496
				c-6.546-2.787-13.415-4.508-20.426-5.109c-28.846-2.514-55.854,13.725-67.206,40.406c-9.555,22.467-5.818,47.314,7.662,65.723
				C956.971,1340.582,966.34,1348.275,977.752,1353.139z"/>
		</g>
		<path fill="#CC4848" d="M1074.185,1321.588c16.518-38.814-1.548-83.668-40.348-100.17c-7.629-3.25-15.485-5.164-23.341-5.838
			c92.613,90.068-12.315,152.229-12.315,152.229C1029.902,1370.232,1061.026,1352.465,1074.185,1321.588z"/>
		<path fill="#282826" d="M1083.617,1259.566c8.573,21.287,8.349,44.641-0.641,65.762l-0.002,0.004
			c-14.45,33.906-48.817,54.807-85.485,52.008c-9.324-0.678-18.48-2.902-27.219-6.617c-43.563-18.566-63.925-69.123-45.392-112.697
			c14.598-34.313,49.337-55.195,86.436-51.967c9.02,0.779,17.855,2.986,26.261,6.568c14.41,6.129,26.599,15.836,35.612,28.145
			C1077.385,1246.506,1080.894,1252.805,1083.617,1259.566z M977.752,1353.139c6.792,2.887,13.899,4.615,21.155,5.143
			c28.53,2.178,55.246-14.072,66.486-40.436c6.991-16.426,7.166-34.59,0.497-51.141c-6.664-16.553-19.378-29.512-35.798-36.496
			c-6.546-2.787-13.415-4.508-20.426-5.109c-28.846-2.514-55.854,13.725-67.206,40.406c-9.555,22.467-5.818,47.314,7.662,65.723
			C956.971,1340.582,966.34,1348.275,977.752,1353.139z"/>
		<path fill="#FFFFFF" d="M992.024,1319.637c2.102-4.938,10.5-6.09,18.757-2.572c8.258,3.514,13.247,10.367,11.146,15.301
			c-2.098,4.938-10.496,6.088-18.755,2.572C994.916,1331.422,989.923,1324.57,992.024,1319.637z"/>
		<path fill="#FFFFFF" d="M962.397,1267.902c2.99-7.023,11.112-10.293,18.139-7.305c7.027,2.99,10.298,11.113,7.303,18.139
			c-2.988,7.027-11.109,10.297-18.137,7.307C962.676,1283.055,959.406,1274.932,962.397,1267.902z"/>
		
			<ellipse transform="matrix(-0.9201 -0.3918 0.3918 -0.9201 1504.7363 2851.5579)" fill="#FFFFFF" cx="1043.27" cy="1272.273" rx="12.349" ry="13.828"/>
	</g>
	<g>
		<path fill="#7BAD50" d="M838.505,1343.404c0,0-48.375-6.84-51.118-30.225c-2.738-23.387-9.599-17.844,4.974-38.09
			c14.572-20.25,37.332-19.027,55.796,4.705C866.624,1303.525,888.024,1347.557,838.505,1343.404z"/>
		<path fill="#282826" d="M875.364,1338.879c-5.917,10.918-18.585,15.643-37.657,14.047l-0.541-0.061
			c-5.694-0.807-55.763-8.732-59.267-38.574c-0.727-6.207-1.76-10.08-2.586-13.189c-3.122-11.729-1.818-16.158,9.292-31.596
			c8.275-11.496,19.48-17.955,31.551-18.18c13.956-0.262,27.999,7.766,39.544,22.602c0.72,0.926,1.584,2.064,2.555,3.389
			C867.491,1289.932,886.005,1319.238,875.364,1338.879z M839.582,1333.904c10.2,0.82,17.112-0.682,18.982-4.129
			c3.77-6.957-4.116-26.342-17.947-44.113c-7.757-9.967-16.317-15.375-24.103-15.23c-7.566,0.143-13.095,5.646-16.397,10.238
			c-1.922,2.668-6.418,8.92-7.141,11.34c-0.134,0.459-0.01,1.125,0.806,4.178c0.93,3.51,2.209,8.309,3.098,15.879
			c0.184,1.566,0.855,3.08,1.92,4.535C805.138,1325.256,825.394,1331.828,839.582,1333.904z"/>
	</g>
	<path fill="#FFFFFF" d="M725.424,1411.596L725.424,1411.596c-6.393-2.307-13.443,1.012-15.747,7.404l-0.731,2.027
		c-2.304,6.393,1.015,13.441,7.406,15.746l0,0c6.392,2.305,13.445-1.01,15.749-7.404l0.73-2.025
		C735.133,1420.951,731.82,1413.898,725.424,1411.596z"/>
	<path fill="#FFFFFF" d="M913.709,1449.697c-66.773,1.42-115.863-11.748-136.367-18.48c-6.065-1.99-12.62,0.99-15.129,6.863
		l-0.87,2.039c-2.822,6.611,0.574,14.227,7.396,16.498c22.591,7.518,74.414,21.396,145.569,19.842
		c6.916-0.15,12.368-5.986,12.044-12.893l-0.102-2.16C925.942,1454.754,920.368,1449.557,913.709,1449.697z"/>
</g>
</svg>
